%TF.GenerationSoftware,KiCad,Pcbnew,(5.1.10)-1*%
%TF.CreationDate,2021-10-03T01:52:34+02:00*%
%TF.ProjectId,no 1,6e6f2031-2e6b-4696-9361-645f70636258,rev?*%
%TF.SameCoordinates,Original*%
%TF.FileFunction,Copper,L2,Bot*%
%TF.FilePolarity,Positive*%
%FSLAX46Y46*%
G04 Gerber Fmt 4.6, Leading zero omitted, Abs format (unit mm)*
G04 Created by KiCad (PCBNEW (5.1.10)-1) date 2021-10-03 01:52:34*
%MOMM*%
%LPD*%
G01*
G04 APERTURE LIST*
%TA.AperFunction,ComponentPad*%
%ADD10O,1.400000X1.400000*%
%TD*%
%TA.AperFunction,ComponentPad*%
%ADD11C,1.400000*%
%TD*%
%TA.AperFunction,ComponentPad*%
%ADD12R,0.850000X0.850000*%
%TD*%
%TA.AperFunction,ComponentPad*%
%ADD13R,1.000000X1.000000*%
%TD*%
%TA.AperFunction,ComponentPad*%
%ADD14R,1.905000X2.000000*%
%TD*%
%TA.AperFunction,ComponentPad*%
%ADD15O,1.905000X2.000000*%
%TD*%
%TA.AperFunction,ComponentPad*%
%ADD16O,0.850000X0.850000*%
%TD*%
G04 APERTURE END LIST*
D10*
%TO.P,R2,2*%
%TO.N,Net-(Q2-Pad1)*%
X194310000Y-76454000D03*
D11*
%TO.P,R2,1*%
%TO.N,Net-(J5-Pad1)*%
X199390000Y-76454000D03*
%TD*%
D12*
%TO.P,J5,1*%
%TO.N,Net-(J5-Pad1)*%
X203962000Y-76454000D03*
%TD*%
%TO.P,J13,1*%
%TO.N,Net-(J10-Pad1)*%
X229362000Y-82042000D03*
%TD*%
D13*
%TO.P,J13,1*%
%TO.N,Net-(J13-Pad1)*%
X200660000Y-95250000D03*
%TD*%
%TO.P,J13,1*%
%TO.N,Net-(J13-Pad1)*%
X204470000Y-95250000D03*
%TD*%
%TO.P,J13,1*%
%TO.N,Net-(J13-Pad1)*%
X200660000Y-97790000D03*
%TD*%
%TO.P,J13,1*%
%TO.N,Net-(J13-Pad1)*%
X204470000Y-97790000D03*
%TD*%
%TO.P,J14,1*%
%TO.N,Net-(J13-Pad1)*%
X233680000Y-107950000D03*
%TD*%
%TO.P,J14,1*%
%TO.N,Net-(J13-Pad1)*%
X233680000Y-110490000D03*
%TD*%
%TO.P,J14,1*%
%TO.N,Net-(J13-Pad1)*%
X233680000Y-113030000D03*
%TD*%
%TO.P,J14,1*%
%TO.N,Net-(J13-Pad1)*%
X233680000Y-115570000D03*
%TD*%
%TO.P,J14,1*%
%TO.N,Net-(J13-Pad1)*%
X233680000Y-95250000D03*
%TD*%
%TO.P,J14,1*%
%TO.N,Net-(J13-Pad1)*%
X233680000Y-92710000D03*
%TD*%
%TO.P,J14,1*%
%TO.N,Net-(J13-Pad1)*%
X233680000Y-90170000D03*
%TD*%
%TO.P,J14,1*%
%TO.N,Net-(J13-Pad1)*%
X233680000Y-118110000D03*
%TD*%
%TO.P,J14,1*%
%TO.N,Net-(J13-Pad1)*%
X233680000Y-120650000D03*
%TD*%
%TO.P,J14,1*%
%TO.N,Net-(J13-Pad1)*%
X233680000Y-123190000D03*
%TD*%
%TO.P,J14,1*%
%TO.N,Net-(J13-Pad1)*%
X233680000Y-125730000D03*
%TD*%
%TO.P,J14,1*%
%TO.N,Net-(J13-Pad1)*%
X229870000Y-115570000D03*
%TD*%
%TO.P,J14,1*%
%TO.N,Net-(J13-Pad1)*%
X229870000Y-118110000D03*
%TD*%
%TO.P,J14,1*%
%TO.N,Net-(J13-Pad1)*%
X229870000Y-120650000D03*
%TD*%
%TO.P,J14,1*%
%TO.N,Net-(J13-Pad1)*%
X229870000Y-123190000D03*
%TD*%
%TO.P,J14,1*%
%TO.N,Net-(J13-Pad1)*%
X229870000Y-125730000D03*
%TD*%
%TO.P,J14,1*%
%TO.N,Net-(J13-Pad1)*%
X200660000Y-115570000D03*
%TD*%
%TO.P,J14,1*%
%TO.N,Net-(J13-Pad1)*%
X200660000Y-120650000D03*
%TD*%
%TO.P,J14,1*%
%TO.N,Net-(J13-Pad1)*%
X200660000Y-125730000D03*
%TD*%
%TO.P,J14,1*%
%TO.N,Net-(J13-Pad1)*%
X200660000Y-118110000D03*
%TD*%
%TO.P,J14,1*%
%TO.N,Net-(J13-Pad1)*%
X200660000Y-123190000D03*
%TD*%
%TO.P,J14,1*%
%TO.N,Net-(J13-Pad1)*%
X204470000Y-107950000D03*
%TD*%
%TO.P,J14,1*%
%TO.N,Net-(J13-Pad1)*%
X204470000Y-110490000D03*
%TD*%
%TO.P,J14,1*%
%TO.N,Net-(J13-Pad1)*%
X204470000Y-113030000D03*
%TD*%
%TO.P,J14,1*%
%TO.N,Net-(J13-Pad1)*%
X204470000Y-115570000D03*
%TD*%
%TO.P,J14,1*%
%TO.N,Net-(J13-Pad1)*%
X204470000Y-92710000D03*
%TD*%
%TO.P,J14,1*%
%TO.N,Net-(J13-Pad1)*%
X204470000Y-118110000D03*
%TD*%
%TO.P,J14,1*%
%TO.N,Net-(J13-Pad1)*%
X204470000Y-123190000D03*
%TD*%
%TO.P,J14,1*%
%TO.N,Net-(J13-Pad1)*%
X204470000Y-125730000D03*
%TD*%
%TO.P,J14,1*%
%TO.N,Net-(J13-Pad1)*%
X204470000Y-120650000D03*
%TD*%
%TO.P,J14,1*%
%TO.N,Net-(J13-Pad1)*%
X204470000Y-90170000D03*
%TD*%
%TO.P,J13,1*%
%TO.N,Net-(J13-Pad1)*%
X229870000Y-100330000D03*
%TD*%
%TO.P,J13,1*%
%TO.N,Net-(J13-Pad1)*%
X229870000Y-102870000D03*
%TD*%
%TO.P,J13,1*%
%TO.N,Net-(J13-Pad1)*%
X229870000Y-105410000D03*
%TD*%
%TO.P,J13,1*%
%TO.N,Net-(J13-Pad1)*%
X229870000Y-95250000D03*
%TD*%
%TO.P,J13,1*%
%TO.N,Net-(J13-Pad1)*%
X229870000Y-92710000D03*
%TD*%
%TO.P,J13,1*%
%TO.N,Net-(J13-Pad1)*%
X229870000Y-90170000D03*
%TD*%
%TO.P,J13,1*%
%TO.N,Net-(J13-Pad1)*%
X229870000Y-107950000D03*
%TD*%
%TO.P,J13,1*%
%TO.N,Net-(J13-Pad1)*%
X229870000Y-110490000D03*
%TD*%
%TO.P,J13,1*%
%TO.N,Net-(J13-Pad1)*%
X229870000Y-113030000D03*
%TD*%
%TO.P,J13,1*%
%TO.N,Net-(J13-Pad1)*%
X200660000Y-100330000D03*
%TD*%
%TO.P,J13,1*%
%TO.N,Net-(J13-Pad1)*%
X200660000Y-105410000D03*
%TD*%
%TO.P,J13,1*%
%TO.N,Net-(J13-Pad1)*%
X200660000Y-102870000D03*
%TD*%
%TO.P,J13,1*%
%TO.N,Net-(J13-Pad1)*%
X200660000Y-90170000D03*
%TD*%
%TO.P,J13,1*%
%TO.N,Net-(J13-Pad1)*%
X200660000Y-92710000D03*
%TD*%
%TO.P,J13,1*%
%TO.N,Net-(J13-Pad1)*%
X200660000Y-110490000D03*
%TD*%
%TO.P,J13,1*%
%TO.N,Net-(J13-Pad1)*%
X200660000Y-113030000D03*
%TD*%
%TO.P,J13,1*%
%TO.N,Net-(J13-Pad1)*%
X200660000Y-107950000D03*
%TD*%
%TO.P,J13,1*%
%TO.N,Net-(J13-Pad1)*%
X229870000Y-97790000D03*
%TD*%
%TO.P,J13,1*%
%TO.N,Net-(J13-Pad1)*%
X233680000Y-97790000D03*
%TD*%
%TO.P,J13,1*%
%TO.N,Net-(J13-Pad1)*%
X233680000Y-100330000D03*
%TD*%
%TO.P,J13,1*%
%TO.N,Net-(J13-Pad1)*%
X233680000Y-102870000D03*
%TD*%
%TO.P,J13,1*%
%TO.N,Net-(J13-Pad1)*%
X233680000Y-105410000D03*
%TD*%
%TO.P,J13,1*%
%TO.N,Net-(J13-Pad1)*%
X204470000Y-100330000D03*
%TD*%
%TO.P,J13,1*%
%TO.N,Net-(J13-Pad1)*%
X204470000Y-102870000D03*
%TD*%
%TO.P,J13,1*%
%TO.N,Net-(J13-Pad1)*%
X204470000Y-105410000D03*
%TD*%
D14*
%TO.P,Q4,1*%
%TO.N,Net-(Q4-Pad1)*%
X231140000Y-71120000D03*
D15*
%TO.P,Q4,2*%
%TO.N,Net-(J11-Pad2)*%
X228600000Y-71120000D03*
%TO.P,Q4,3*%
%TO.N,Net-(J10-Pad1)*%
X226060000Y-71120000D03*
%TD*%
D16*
%TO.P,J1,2*%
%TO.N,Net-(J1-Pad2)*%
X193040000Y-143510000D03*
D12*
%TO.P,J1,1*%
%TO.N,Net-(J1-Pad1)*%
X193040000Y-142510000D03*
%TD*%
%TO.P,J2,1*%
%TO.N,Net-(J2-Pad1)*%
X196850000Y-67310000D03*
D16*
%TO.P,J2,2*%
%TO.N,Net-(J11-Pad1)*%
X197850000Y-67310000D03*
%TD*%
D12*
%TO.P,J3,1*%
%TO.N,Net-(J10-Pad1)*%
X191770000Y-107950000D03*
%TD*%
%TO.P,J4,1*%
%TO.N,Net-(J4-Pad1)*%
X203200000Y-138430000D03*
%TD*%
%TO.P,J6,1*%
%TO.N,Net-(J1-Pad1)*%
X213360000Y-147320000D03*
%TD*%
%TO.P,J7,1*%
%TO.N,Net-(J11-Pad1)*%
X212090000Y-68580000D03*
%TD*%
%TO.P,J8,1*%
%TO.N,Net-(J8-Pad1)*%
X222250000Y-76200000D03*
%TD*%
%TO.P,J9,1*%
%TO.N,Net-(J9-Pad1)*%
X222250000Y-138430000D03*
%TD*%
%TO.P,J10,1*%
%TO.N,Net-(J10-Pad1)*%
X234950000Y-132080000D03*
%TD*%
D16*
%TO.P,J11,2*%
%TO.N,Net-(J11-Pad2)*%
X232140000Y-67310000D03*
D12*
%TO.P,J11,1*%
%TO.N,Net-(J11-Pad1)*%
X231140000Y-67310000D03*
%TD*%
%TO.P,J12,1*%
%TO.N,Net-(J12-Pad1)*%
X234950000Y-143510000D03*
D16*
%TO.P,J12,2*%
%TO.N,Net-(J1-Pad1)*%
X234950000Y-144510000D03*
%TD*%
D14*
%TO.P,Q1,1*%
%TO.N,Net-(Q1-Pad1)*%
X203200000Y-142240000D03*
D15*
%TO.P,Q1,2*%
%TO.N,Net-(J1-Pad2)*%
X200660000Y-142240000D03*
%TO.P,Q1,3*%
%TO.N,Net-(J10-Pad1)*%
X198120000Y-142240000D03*
%TD*%
%TO.P,Q2,3*%
%TO.N,Net-(J10-Pad1)*%
X199390000Y-72390000D03*
%TO.P,Q2,2*%
%TO.N,Net-(J2-Pad1)*%
X196850000Y-72390000D03*
D14*
%TO.P,Q2,1*%
%TO.N,Net-(Q2-Pad1)*%
X194310000Y-72390000D03*
%TD*%
%TO.P,Q3,1*%
%TO.N,Net-(Q3-Pad1)*%
X229870000Y-142240000D03*
D15*
%TO.P,Q3,2*%
%TO.N,Net-(J12-Pad1)*%
X227330000Y-142240000D03*
%TO.P,Q3,3*%
%TO.N,Net-(J10-Pad1)*%
X224790000Y-142240000D03*
%TD*%
D10*
%TO.P,R1,2*%
%TO.N,Net-(J4-Pad1)*%
X195580000Y-138430000D03*
D11*
%TO.P,R1,1*%
%TO.N,Net-(Q1-Pad1)*%
X200660000Y-138430000D03*
%TD*%
%TO.P,R3,1*%
%TO.N,Net-(Q3-Pad1)*%
X229870000Y-138430000D03*
D10*
%TO.P,R3,2*%
%TO.N,Net-(J9-Pad1)*%
X224790000Y-138430000D03*
%TD*%
%TO.P,R4,2*%
%TO.N,Net-(J8-Pad1)*%
X226060000Y-76200000D03*
D11*
%TO.P,R4,1*%
%TO.N,Net-(Q4-Pad1)*%
X231140000Y-76200000D03*
%TD*%
M02*
