%TF.GenerationSoftware,KiCad,Pcbnew,(5.1.10)-1*%
%TF.CreationDate,2021-10-03T01:52:35+02:00*%
%TF.ProjectId,no 1,6e6f2031-2e6b-4696-9361-645f70636258,rev?*%
%TF.SameCoordinates,Original*%
%TF.FileFunction,Other,User*%
%FSLAX46Y46*%
G04 Gerber Fmt 4.6, Leading zero omitted, Abs format (unit mm)*
G04 Created by KiCad (PCBNEW (5.1.10)-1) date 2021-10-03 01:52:35*
%MOMM*%
%LPD*%
G01*
G04 APERTURE LIST*
%ADD10C,0.050000*%
G04 APERTURE END LIST*
D10*
%TO.C,R2*%
X193360000Y-77504000D02*
X200340000Y-77504000D01*
X193360000Y-75404000D02*
X193360000Y-77504000D01*
X200340000Y-75404000D02*
X193360000Y-75404000D01*
X200340000Y-77504000D02*
X200340000Y-75404000D01*
%TO.C,J5*%
X202812000Y-77454000D02*
X205112000Y-77454000D01*
X202812000Y-75454000D02*
X202812000Y-77454000D01*
X205112000Y-75454000D02*
X202812000Y-75454000D01*
X205112000Y-77454000D02*
X205112000Y-75454000D01*
%TO.C,J13*%
X230512000Y-81042000D02*
X228212000Y-81042000D01*
X230512000Y-83042000D02*
X230512000Y-81042000D01*
X228212000Y-83042000D02*
X230512000Y-83042000D01*
X228212000Y-81042000D02*
X228212000Y-83042000D01*
%TO.C,H2*%
X219920000Y-106480000D02*
G75*
G03*
X219920000Y-106480000I-2750000J0D01*
G01*
%TO.C,H1*%
X219920000Y-113030000D02*
G75*
G03*
X219920000Y-113030000I-2750000J0D01*
G01*
%TO.C,J13*%
X198860000Y-96400000D02*
X198860000Y-94100000D01*
X202410000Y-96400000D02*
X198860000Y-96400000D01*
X202410000Y-94100000D02*
X202410000Y-96400000D01*
X198860000Y-94100000D02*
X202410000Y-94100000D01*
X202670000Y-96400000D02*
X202670000Y-94100000D01*
X206220000Y-96400000D02*
X202670000Y-96400000D01*
X206220000Y-94100000D02*
X206220000Y-96400000D01*
X202670000Y-94100000D02*
X206220000Y-94100000D01*
X198860000Y-98940000D02*
X198860000Y-96640000D01*
X202410000Y-98940000D02*
X198860000Y-98940000D01*
X202410000Y-96640000D02*
X202410000Y-98940000D01*
X198860000Y-96640000D02*
X202410000Y-96640000D01*
X202670000Y-98940000D02*
X202670000Y-96640000D01*
X206220000Y-98940000D02*
X202670000Y-98940000D01*
X206220000Y-96640000D02*
X206220000Y-98940000D01*
X202670000Y-96640000D02*
X206220000Y-96640000D01*
%TO.C,J14*%
X231880000Y-109100000D02*
X231880000Y-106800000D01*
X235430000Y-109100000D02*
X231880000Y-109100000D01*
X235430000Y-106800000D02*
X235430000Y-109100000D01*
X231880000Y-106800000D02*
X235430000Y-106800000D01*
X231880000Y-111640000D02*
X231880000Y-109340000D01*
X235430000Y-111640000D02*
X231880000Y-111640000D01*
X235430000Y-109340000D02*
X235430000Y-111640000D01*
X231880000Y-109340000D02*
X235430000Y-109340000D01*
X231880000Y-114180000D02*
X231880000Y-111880000D01*
X235430000Y-114180000D02*
X231880000Y-114180000D01*
X235430000Y-111880000D02*
X235430000Y-114180000D01*
X231880000Y-111880000D02*
X235430000Y-111880000D01*
X231880000Y-116720000D02*
X231880000Y-114420000D01*
X235430000Y-116720000D02*
X231880000Y-116720000D01*
X235430000Y-114420000D02*
X235430000Y-116720000D01*
X231880000Y-114420000D02*
X235430000Y-114420000D01*
X231880000Y-96400000D02*
X231880000Y-94100000D01*
X235430000Y-96400000D02*
X231880000Y-96400000D01*
X235430000Y-94100000D02*
X235430000Y-96400000D01*
X231880000Y-94100000D02*
X235430000Y-94100000D01*
X231880000Y-93860000D02*
X231880000Y-91560000D01*
X235430000Y-93860000D02*
X231880000Y-93860000D01*
X235430000Y-91560000D02*
X235430000Y-93860000D01*
X231880000Y-91560000D02*
X235430000Y-91560000D01*
X231880000Y-91320000D02*
X231880000Y-89020000D01*
X235430000Y-91320000D02*
X231880000Y-91320000D01*
X235430000Y-89020000D02*
X235430000Y-91320000D01*
X231880000Y-89020000D02*
X235430000Y-89020000D01*
X231880000Y-119260000D02*
X231880000Y-116960000D01*
X235430000Y-119260000D02*
X231880000Y-119260000D01*
X235430000Y-116960000D02*
X235430000Y-119260000D01*
X231880000Y-116960000D02*
X235430000Y-116960000D01*
X231880000Y-121800000D02*
X231880000Y-119500000D01*
X235430000Y-121800000D02*
X231880000Y-121800000D01*
X235430000Y-119500000D02*
X235430000Y-121800000D01*
X231880000Y-119500000D02*
X235430000Y-119500000D01*
X231880000Y-124340000D02*
X231880000Y-122040000D01*
X235430000Y-124340000D02*
X231880000Y-124340000D01*
X235430000Y-122040000D02*
X235430000Y-124340000D01*
X231880000Y-122040000D02*
X235430000Y-122040000D01*
X231880000Y-126880000D02*
X231880000Y-124580000D01*
X235430000Y-126880000D02*
X231880000Y-126880000D01*
X235430000Y-124580000D02*
X235430000Y-126880000D01*
X231880000Y-124580000D02*
X235430000Y-124580000D01*
X228070000Y-116720000D02*
X228070000Y-114420000D01*
X231620000Y-116720000D02*
X228070000Y-116720000D01*
X231620000Y-114420000D02*
X231620000Y-116720000D01*
X228070000Y-114420000D02*
X231620000Y-114420000D01*
X228070000Y-119260000D02*
X228070000Y-116960000D01*
X231620000Y-119260000D02*
X228070000Y-119260000D01*
X231620000Y-116960000D02*
X231620000Y-119260000D01*
X228070000Y-116960000D02*
X231620000Y-116960000D01*
X228070000Y-121800000D02*
X228070000Y-119500000D01*
X231620000Y-121800000D02*
X228070000Y-121800000D01*
X231620000Y-119500000D02*
X231620000Y-121800000D01*
X228070000Y-119500000D02*
X231620000Y-119500000D01*
X228070000Y-124340000D02*
X228070000Y-122040000D01*
X231620000Y-124340000D02*
X228070000Y-124340000D01*
X231620000Y-122040000D02*
X231620000Y-124340000D01*
X228070000Y-122040000D02*
X231620000Y-122040000D01*
X228070000Y-126880000D02*
X228070000Y-124580000D01*
X231620000Y-126880000D02*
X228070000Y-126880000D01*
X231620000Y-124580000D02*
X231620000Y-126880000D01*
X228070000Y-124580000D02*
X231620000Y-124580000D01*
X198860000Y-116720000D02*
X198860000Y-114420000D01*
X202410000Y-116720000D02*
X198860000Y-116720000D01*
X202410000Y-114420000D02*
X202410000Y-116720000D01*
X198860000Y-114420000D02*
X202410000Y-114420000D01*
X198860000Y-121800000D02*
X198860000Y-119500000D01*
X202410000Y-121800000D02*
X198860000Y-121800000D01*
X202410000Y-119500000D02*
X202410000Y-121800000D01*
X198860000Y-119500000D02*
X202410000Y-119500000D01*
X198860000Y-126880000D02*
X198860000Y-124580000D01*
X202410000Y-126880000D02*
X198860000Y-126880000D01*
X202410000Y-124580000D02*
X202410000Y-126880000D01*
X198860000Y-124580000D02*
X202410000Y-124580000D01*
X198860000Y-119260000D02*
X198860000Y-116960000D01*
X202410000Y-119260000D02*
X198860000Y-119260000D01*
X202410000Y-116960000D02*
X202410000Y-119260000D01*
X198860000Y-116960000D02*
X202410000Y-116960000D01*
X198860000Y-124340000D02*
X198860000Y-122040000D01*
X202410000Y-124340000D02*
X198860000Y-124340000D01*
X202410000Y-122040000D02*
X202410000Y-124340000D01*
X198860000Y-122040000D02*
X202410000Y-122040000D01*
X202670000Y-109100000D02*
X202670000Y-106800000D01*
X206220000Y-109100000D02*
X202670000Y-109100000D01*
X206220000Y-106800000D02*
X206220000Y-109100000D01*
X202670000Y-106800000D02*
X206220000Y-106800000D01*
X202670000Y-111640000D02*
X202670000Y-109340000D01*
X206220000Y-111640000D02*
X202670000Y-111640000D01*
X206220000Y-109340000D02*
X206220000Y-111640000D01*
X202670000Y-109340000D02*
X206220000Y-109340000D01*
X202670000Y-114180000D02*
X202670000Y-111880000D01*
X206220000Y-114180000D02*
X202670000Y-114180000D01*
X206220000Y-111880000D02*
X206220000Y-114180000D01*
X202670000Y-111880000D02*
X206220000Y-111880000D01*
X202670000Y-116720000D02*
X202670000Y-114420000D01*
X206220000Y-116720000D02*
X202670000Y-116720000D01*
X206220000Y-114420000D02*
X206220000Y-116720000D01*
X202670000Y-114420000D02*
X206220000Y-114420000D01*
X202670000Y-93860000D02*
X202670000Y-91560000D01*
X206220000Y-93860000D02*
X202670000Y-93860000D01*
X206220000Y-91560000D02*
X206220000Y-93860000D01*
X202670000Y-91560000D02*
X206220000Y-91560000D01*
X202670000Y-119260000D02*
X202670000Y-116960000D01*
X206220000Y-119260000D02*
X202670000Y-119260000D01*
X206220000Y-116960000D02*
X206220000Y-119260000D01*
X202670000Y-116960000D02*
X206220000Y-116960000D01*
X202670000Y-124340000D02*
X202670000Y-122040000D01*
X206220000Y-124340000D02*
X202670000Y-124340000D01*
X206220000Y-122040000D02*
X206220000Y-124340000D01*
X202670000Y-122040000D02*
X206220000Y-122040000D01*
X202670000Y-126880000D02*
X202670000Y-124580000D01*
X206220000Y-126880000D02*
X202670000Y-126880000D01*
X206220000Y-124580000D02*
X206220000Y-126880000D01*
X202670000Y-124580000D02*
X206220000Y-124580000D01*
X202670000Y-121800000D02*
X202670000Y-119500000D01*
X206220000Y-121800000D02*
X202670000Y-121800000D01*
X206220000Y-119500000D02*
X206220000Y-121800000D01*
X202670000Y-119500000D02*
X206220000Y-119500000D01*
X202670000Y-91320000D02*
X202670000Y-89020000D01*
X206220000Y-91320000D02*
X202670000Y-91320000D01*
X206220000Y-89020000D02*
X206220000Y-91320000D01*
X202670000Y-89020000D02*
X206220000Y-89020000D01*
%TO.C,J13*%
X228070000Y-101480000D02*
X228070000Y-99180000D01*
X231620000Y-101480000D02*
X228070000Y-101480000D01*
X231620000Y-99180000D02*
X231620000Y-101480000D01*
X228070000Y-99180000D02*
X231620000Y-99180000D01*
X228070000Y-104020000D02*
X228070000Y-101720000D01*
X231620000Y-104020000D02*
X228070000Y-104020000D01*
X231620000Y-101720000D02*
X231620000Y-104020000D01*
X228070000Y-101720000D02*
X231620000Y-101720000D01*
X228070000Y-106560000D02*
X228070000Y-104260000D01*
X231620000Y-106560000D02*
X228070000Y-106560000D01*
X231620000Y-104260000D02*
X231620000Y-106560000D01*
X228070000Y-104260000D02*
X231620000Y-104260000D01*
X228070000Y-96400000D02*
X228070000Y-94100000D01*
X231620000Y-96400000D02*
X228070000Y-96400000D01*
X231620000Y-94100000D02*
X231620000Y-96400000D01*
X228070000Y-94100000D02*
X231620000Y-94100000D01*
X228070000Y-93860000D02*
X228070000Y-91560000D01*
X231620000Y-93860000D02*
X228070000Y-93860000D01*
X231620000Y-91560000D02*
X231620000Y-93860000D01*
X228070000Y-91560000D02*
X231620000Y-91560000D01*
X228070000Y-91320000D02*
X228070000Y-89020000D01*
X231620000Y-91320000D02*
X228070000Y-91320000D01*
X231620000Y-89020000D02*
X231620000Y-91320000D01*
X228070000Y-89020000D02*
X231620000Y-89020000D01*
X228070000Y-109100000D02*
X228070000Y-106800000D01*
X231620000Y-109100000D02*
X228070000Y-109100000D01*
X231620000Y-106800000D02*
X231620000Y-109100000D01*
X228070000Y-106800000D02*
X231620000Y-106800000D01*
X228070000Y-111640000D02*
X228070000Y-109340000D01*
X231620000Y-111640000D02*
X228070000Y-111640000D01*
X231620000Y-109340000D02*
X231620000Y-111640000D01*
X228070000Y-109340000D02*
X231620000Y-109340000D01*
X228070000Y-114180000D02*
X228070000Y-111880000D01*
X231620000Y-114180000D02*
X228070000Y-114180000D01*
X231620000Y-111880000D02*
X231620000Y-114180000D01*
X228070000Y-111880000D02*
X231620000Y-111880000D01*
X198860000Y-101480000D02*
X198860000Y-99180000D01*
X202410000Y-101480000D02*
X198860000Y-101480000D01*
X202410000Y-99180000D02*
X202410000Y-101480000D01*
X198860000Y-99180000D02*
X202410000Y-99180000D01*
X198860000Y-106560000D02*
X198860000Y-104260000D01*
X202410000Y-106560000D02*
X198860000Y-106560000D01*
X202410000Y-104260000D02*
X202410000Y-106560000D01*
X198860000Y-104260000D02*
X202410000Y-104260000D01*
X198860000Y-104020000D02*
X198860000Y-101720000D01*
X202410000Y-104020000D02*
X198860000Y-104020000D01*
X202410000Y-101720000D02*
X202410000Y-104020000D01*
X198860000Y-101720000D02*
X202410000Y-101720000D01*
X198860000Y-91320000D02*
X198860000Y-89020000D01*
X202410000Y-91320000D02*
X198860000Y-91320000D01*
X202410000Y-89020000D02*
X202410000Y-91320000D01*
X198860000Y-89020000D02*
X202410000Y-89020000D01*
X198860000Y-93860000D02*
X198860000Y-91560000D01*
X202410000Y-93860000D02*
X198860000Y-93860000D01*
X202410000Y-91560000D02*
X202410000Y-93860000D01*
X198860000Y-91560000D02*
X202410000Y-91560000D01*
X198860000Y-111640000D02*
X198860000Y-109340000D01*
X202410000Y-111640000D02*
X198860000Y-111640000D01*
X202410000Y-109340000D02*
X202410000Y-111640000D01*
X198860000Y-109340000D02*
X202410000Y-109340000D01*
X198860000Y-114180000D02*
X198860000Y-111880000D01*
X202410000Y-114180000D02*
X198860000Y-114180000D01*
X202410000Y-111880000D02*
X202410000Y-114180000D01*
X198860000Y-111880000D02*
X202410000Y-111880000D01*
X198860000Y-109100000D02*
X198860000Y-106800000D01*
X202410000Y-109100000D02*
X198860000Y-109100000D01*
X202410000Y-106800000D02*
X202410000Y-109100000D01*
X198860000Y-106800000D02*
X202410000Y-106800000D01*
X228070000Y-98940000D02*
X228070000Y-96640000D01*
X231620000Y-98940000D02*
X228070000Y-98940000D01*
X231620000Y-96640000D02*
X231620000Y-98940000D01*
X228070000Y-96640000D02*
X231620000Y-96640000D01*
X231880000Y-98940000D02*
X231880000Y-96640000D01*
X235430000Y-98940000D02*
X231880000Y-98940000D01*
X235430000Y-96640000D02*
X235430000Y-98940000D01*
X231880000Y-96640000D02*
X235430000Y-96640000D01*
X231880000Y-101480000D02*
X231880000Y-99180000D01*
X235430000Y-101480000D02*
X231880000Y-101480000D01*
X235430000Y-99180000D02*
X235430000Y-101480000D01*
X231880000Y-99180000D02*
X235430000Y-99180000D01*
X231880000Y-104020000D02*
X231880000Y-101720000D01*
X235430000Y-104020000D02*
X231880000Y-104020000D01*
X235430000Y-101720000D02*
X235430000Y-104020000D01*
X231880000Y-101720000D02*
X235430000Y-101720000D01*
X231880000Y-106560000D02*
X231880000Y-104260000D01*
X235430000Y-106560000D02*
X231880000Y-106560000D01*
X235430000Y-104260000D02*
X235430000Y-106560000D01*
X231880000Y-104260000D02*
X235430000Y-104260000D01*
X202670000Y-101480000D02*
X202670000Y-99180000D01*
X206220000Y-101480000D02*
X202670000Y-101480000D01*
X206220000Y-99180000D02*
X206220000Y-101480000D01*
X202670000Y-99180000D02*
X206220000Y-99180000D01*
X202670000Y-104020000D02*
X202670000Y-101720000D01*
X206220000Y-104020000D02*
X202670000Y-104020000D01*
X206220000Y-101720000D02*
X206220000Y-104020000D01*
X202670000Y-101720000D02*
X206220000Y-101720000D01*
X202670000Y-106560000D02*
X202670000Y-104260000D01*
X206220000Y-106560000D02*
X202670000Y-106560000D01*
X206220000Y-104260000D02*
X206220000Y-106560000D01*
X202670000Y-104260000D02*
X206220000Y-104260000D01*
%TO.C,Q4*%
X233850000Y-74520000D02*
X233850000Y-69610000D01*
X233850000Y-69610000D02*
X223350000Y-69610000D01*
X223350000Y-69610000D02*
X223350000Y-74520000D01*
X223350000Y-74520000D02*
X233850000Y-74520000D01*
%TO.C,J1*%
X191500000Y-144760000D02*
X191500000Y-141260000D01*
X194000000Y-144760000D02*
X191500000Y-144760000D01*
X194000000Y-141260000D02*
X194000000Y-144760000D01*
X191500000Y-141260000D02*
X194000000Y-141260000D01*
%TO.C,J2*%
X195600000Y-68850000D02*
X195600000Y-66350000D01*
X195600000Y-66350000D02*
X199100000Y-66350000D01*
X199100000Y-66350000D02*
X199100000Y-68850000D01*
X199100000Y-68850000D02*
X195600000Y-68850000D01*
%TO.C,J3*%
X192920000Y-106950000D02*
X190620000Y-106950000D01*
X192920000Y-108950000D02*
X192920000Y-106950000D01*
X190620000Y-108950000D02*
X192920000Y-108950000D01*
X190620000Y-106950000D02*
X190620000Y-108950000D01*
%TO.C,J4*%
X204350000Y-137430000D02*
X202050000Y-137430000D01*
X204350000Y-139430000D02*
X204350000Y-137430000D01*
X202050000Y-139430000D02*
X204350000Y-139430000D01*
X202050000Y-137430000D02*
X202050000Y-139430000D01*
%TO.C,J6*%
X212210000Y-146320000D02*
X212210000Y-148320000D01*
X212210000Y-148320000D02*
X214510000Y-148320000D01*
X214510000Y-148320000D02*
X214510000Y-146320000D01*
X214510000Y-146320000D02*
X212210000Y-146320000D01*
%TO.C,J7*%
X213240000Y-67580000D02*
X210940000Y-67580000D01*
X213240000Y-69580000D02*
X213240000Y-67580000D01*
X210940000Y-69580000D02*
X213240000Y-69580000D01*
X210940000Y-67580000D02*
X210940000Y-69580000D01*
%TO.C,J8*%
X223400000Y-75200000D02*
X221100000Y-75200000D01*
X223400000Y-77200000D02*
X223400000Y-75200000D01*
X221100000Y-77200000D02*
X223400000Y-77200000D01*
X221100000Y-75200000D02*
X221100000Y-77200000D01*
%TO.C,J9*%
X221100000Y-137430000D02*
X221100000Y-139430000D01*
X221100000Y-139430000D02*
X223400000Y-139430000D01*
X223400000Y-139430000D02*
X223400000Y-137430000D01*
X223400000Y-137430000D02*
X221100000Y-137430000D01*
%TO.C,J10*%
X233800000Y-131080000D02*
X233800000Y-133080000D01*
X233800000Y-133080000D02*
X236100000Y-133080000D01*
X236100000Y-133080000D02*
X236100000Y-131080000D01*
X236100000Y-131080000D02*
X233800000Y-131080000D01*
%TO.C,J11*%
X233390000Y-68850000D02*
X229890000Y-68850000D01*
X233390000Y-66350000D02*
X233390000Y-68850000D01*
X229890000Y-66350000D02*
X233390000Y-66350000D01*
X229890000Y-68850000D02*
X229890000Y-66350000D01*
%TO.C,J12*%
X233410000Y-142260000D02*
X235910000Y-142260000D01*
X235910000Y-142260000D02*
X235910000Y-145760000D01*
X235910000Y-145760000D02*
X233410000Y-145760000D01*
X233410000Y-145760000D02*
X233410000Y-142260000D01*
%TO.C,Q1*%
X205910000Y-145640000D02*
X205910000Y-140730000D01*
X205910000Y-140730000D02*
X195410000Y-140730000D01*
X195410000Y-140730000D02*
X195410000Y-145640000D01*
X195410000Y-145640000D02*
X205910000Y-145640000D01*
%TO.C,Q2*%
X202100000Y-68990000D02*
X191600000Y-68990000D01*
X202100000Y-73900000D02*
X202100000Y-68990000D01*
X191600000Y-73900000D02*
X202100000Y-73900000D01*
X191600000Y-68990000D02*
X191600000Y-73900000D01*
%TO.C,Q3*%
X232580000Y-145640000D02*
X232580000Y-140730000D01*
X232580000Y-140730000D02*
X222080000Y-140730000D01*
X222080000Y-140730000D02*
X222080000Y-145640000D01*
X222080000Y-145640000D02*
X232580000Y-145640000D01*
%TO.C,R1*%
X194630000Y-139480000D02*
X201610000Y-139480000D01*
X194630000Y-137380000D02*
X194630000Y-139480000D01*
X201610000Y-137380000D02*
X194630000Y-137380000D01*
X201610000Y-139480000D02*
X201610000Y-137380000D01*
%TO.C,R3*%
X230820000Y-139480000D02*
X230820000Y-137380000D01*
X230820000Y-137380000D02*
X223840000Y-137380000D01*
X223840000Y-137380000D02*
X223840000Y-139480000D01*
X223840000Y-139480000D02*
X230820000Y-139480000D01*
%TO.C,R4*%
X225110000Y-77250000D02*
X232090000Y-77250000D01*
X225110000Y-75150000D02*
X225110000Y-77250000D01*
X232090000Y-75150000D02*
X225110000Y-75150000D01*
X232090000Y-77250000D02*
X232090000Y-75150000D01*
%TD*%
M02*
