%TF.GenerationSoftware,KiCad,Pcbnew,(5.1.10)-1*%
%TF.CreationDate,2021-10-03T01:52:34+02:00*%
%TF.ProjectId,no 1,6e6f2031-2e6b-4696-9361-645f70636258,rev?*%
%TF.SameCoordinates,Original*%
%TF.FileFunction,Legend,Top*%
%TF.FilePolarity,Positive*%
%FSLAX46Y46*%
G04 Gerber Fmt 4.6, Leading zero omitted, Abs format (unit mm)*
G04 Created by KiCad (PCBNEW (5.1.10)-1) date 2021-10-03 01:52:34*
%MOMM*%
%LPD*%
G01*
G04 APERTURE LIST*
%ADD10C,0.120000*%
%ADD11C,0.150000*%
G04 APERTURE END LIST*
D10*
%TO.C,R2*%
X198770000Y-75534000D02*
X194930000Y-75534000D01*
X198770000Y-77374000D02*
X194930000Y-77374000D01*
%TO.C,J5*%
X204657000Y-77139000D02*
X203962000Y-77139000D01*
X204657000Y-76454000D02*
X204657000Y-77139000D01*
X203353724Y-75769000D02*
X203267000Y-75769000D01*
X204657000Y-75769000D02*
X204570276Y-75769000D01*
X203267000Y-75769000D02*
X203267000Y-75894000D01*
X204657000Y-75769000D02*
X204657000Y-75894000D01*
X204657000Y-75769000D02*
X203267000Y-75769000D01*
%TO.C,J13*%
X228667000Y-81357000D02*
X229362000Y-81357000D01*
X228667000Y-82042000D02*
X228667000Y-81357000D01*
X229970276Y-82727000D02*
X230057000Y-82727000D01*
X228667000Y-82727000D02*
X228753724Y-82727000D01*
X230057000Y-82727000D02*
X230057000Y-82602000D01*
X228667000Y-82727000D02*
X228667000Y-82602000D01*
X228667000Y-82727000D02*
X230057000Y-82727000D01*
X200660000Y-94490000D02*
X201990000Y-94490000D01*
X201990000Y-94490000D02*
X201990000Y-95250000D01*
X201990000Y-95825000D02*
X201990000Y-95945000D01*
X199330000Y-95825000D02*
X199330000Y-95945000D01*
X201420000Y-95945000D02*
X201990000Y-95945000D01*
X199330000Y-95945000D02*
X199900000Y-95945000D01*
X204470000Y-94490000D02*
X205800000Y-94490000D01*
X205800000Y-94490000D02*
X205800000Y-95250000D01*
X205800000Y-95825000D02*
X205800000Y-95945000D01*
X203140000Y-95825000D02*
X203140000Y-95945000D01*
X205230000Y-95945000D02*
X205800000Y-95945000D01*
X203140000Y-95945000D02*
X203710000Y-95945000D01*
X200660000Y-97030000D02*
X201990000Y-97030000D01*
X201990000Y-97030000D02*
X201990000Y-97790000D01*
X201990000Y-98365000D02*
X201990000Y-98485000D01*
X199330000Y-98365000D02*
X199330000Y-98485000D01*
X201420000Y-98485000D02*
X201990000Y-98485000D01*
X199330000Y-98485000D02*
X199900000Y-98485000D01*
X204470000Y-97030000D02*
X205800000Y-97030000D01*
X205800000Y-97030000D02*
X205800000Y-97790000D01*
X205800000Y-98365000D02*
X205800000Y-98485000D01*
X203140000Y-98365000D02*
X203140000Y-98485000D01*
X205230000Y-98485000D02*
X205800000Y-98485000D01*
X203140000Y-98485000D02*
X203710000Y-98485000D01*
%TO.C,J14*%
X233680000Y-107190000D02*
X235010000Y-107190000D01*
X235010000Y-107190000D02*
X235010000Y-107950000D01*
X235010000Y-108525000D02*
X235010000Y-108645000D01*
X232350000Y-108525000D02*
X232350000Y-108645000D01*
X234440000Y-108645000D02*
X235010000Y-108645000D01*
X232350000Y-108645000D02*
X232920000Y-108645000D01*
X233680000Y-109730000D02*
X235010000Y-109730000D01*
X235010000Y-109730000D02*
X235010000Y-110490000D01*
X235010000Y-111065000D02*
X235010000Y-111185000D01*
X232350000Y-111065000D02*
X232350000Y-111185000D01*
X234440000Y-111185000D02*
X235010000Y-111185000D01*
X232350000Y-111185000D02*
X232920000Y-111185000D01*
X233680000Y-112270000D02*
X235010000Y-112270000D01*
X235010000Y-112270000D02*
X235010000Y-113030000D01*
X235010000Y-113605000D02*
X235010000Y-113725000D01*
X232350000Y-113605000D02*
X232350000Y-113725000D01*
X234440000Y-113725000D02*
X235010000Y-113725000D01*
X232350000Y-113725000D02*
X232920000Y-113725000D01*
X233680000Y-114810000D02*
X235010000Y-114810000D01*
X235010000Y-114810000D02*
X235010000Y-115570000D01*
X235010000Y-116145000D02*
X235010000Y-116265000D01*
X232350000Y-116145000D02*
X232350000Y-116265000D01*
X234440000Y-116265000D02*
X235010000Y-116265000D01*
X232350000Y-116265000D02*
X232920000Y-116265000D01*
X233680000Y-94490000D02*
X235010000Y-94490000D01*
X235010000Y-94490000D02*
X235010000Y-95250000D01*
X235010000Y-95825000D02*
X235010000Y-95945000D01*
X232350000Y-95825000D02*
X232350000Y-95945000D01*
X234440000Y-95945000D02*
X235010000Y-95945000D01*
X232350000Y-95945000D02*
X232920000Y-95945000D01*
X233680000Y-91950000D02*
X235010000Y-91950000D01*
X235010000Y-91950000D02*
X235010000Y-92710000D01*
X235010000Y-93285000D02*
X235010000Y-93405000D01*
X232350000Y-93285000D02*
X232350000Y-93405000D01*
X234440000Y-93405000D02*
X235010000Y-93405000D01*
X232350000Y-93405000D02*
X232920000Y-93405000D01*
X233680000Y-89410000D02*
X235010000Y-89410000D01*
X235010000Y-89410000D02*
X235010000Y-90170000D01*
X235010000Y-90745000D02*
X235010000Y-90865000D01*
X232350000Y-90745000D02*
X232350000Y-90865000D01*
X234440000Y-90865000D02*
X235010000Y-90865000D01*
X232350000Y-90865000D02*
X232920000Y-90865000D01*
X233680000Y-117350000D02*
X235010000Y-117350000D01*
X235010000Y-117350000D02*
X235010000Y-118110000D01*
X235010000Y-118685000D02*
X235010000Y-118805000D01*
X232350000Y-118685000D02*
X232350000Y-118805000D01*
X234440000Y-118805000D02*
X235010000Y-118805000D01*
X232350000Y-118805000D02*
X232920000Y-118805000D01*
X233680000Y-119890000D02*
X235010000Y-119890000D01*
X235010000Y-119890000D02*
X235010000Y-120650000D01*
X235010000Y-121225000D02*
X235010000Y-121345000D01*
X232350000Y-121225000D02*
X232350000Y-121345000D01*
X234440000Y-121345000D02*
X235010000Y-121345000D01*
X232350000Y-121345000D02*
X232920000Y-121345000D01*
X233680000Y-122430000D02*
X235010000Y-122430000D01*
X235010000Y-122430000D02*
X235010000Y-123190000D01*
X235010000Y-123765000D02*
X235010000Y-123885000D01*
X232350000Y-123765000D02*
X232350000Y-123885000D01*
X234440000Y-123885000D02*
X235010000Y-123885000D01*
X232350000Y-123885000D02*
X232920000Y-123885000D01*
X233680000Y-124970000D02*
X235010000Y-124970000D01*
X235010000Y-124970000D02*
X235010000Y-125730000D01*
X235010000Y-126305000D02*
X235010000Y-126425000D01*
X232350000Y-126305000D02*
X232350000Y-126425000D01*
X234440000Y-126425000D02*
X235010000Y-126425000D01*
X232350000Y-126425000D02*
X232920000Y-126425000D01*
X229870000Y-114810000D02*
X231200000Y-114810000D01*
X231200000Y-114810000D02*
X231200000Y-115570000D01*
X231200000Y-116145000D02*
X231200000Y-116265000D01*
X228540000Y-116145000D02*
X228540000Y-116265000D01*
X230630000Y-116265000D02*
X231200000Y-116265000D01*
X228540000Y-116265000D02*
X229110000Y-116265000D01*
X229870000Y-117350000D02*
X231200000Y-117350000D01*
X231200000Y-117350000D02*
X231200000Y-118110000D01*
X231200000Y-118685000D02*
X231200000Y-118805000D01*
X228540000Y-118685000D02*
X228540000Y-118805000D01*
X230630000Y-118805000D02*
X231200000Y-118805000D01*
X228540000Y-118805000D02*
X229110000Y-118805000D01*
X229870000Y-119890000D02*
X231200000Y-119890000D01*
X231200000Y-119890000D02*
X231200000Y-120650000D01*
X231200000Y-121225000D02*
X231200000Y-121345000D01*
X228540000Y-121225000D02*
X228540000Y-121345000D01*
X230630000Y-121345000D02*
X231200000Y-121345000D01*
X228540000Y-121345000D02*
X229110000Y-121345000D01*
X229870000Y-122430000D02*
X231200000Y-122430000D01*
X231200000Y-122430000D02*
X231200000Y-123190000D01*
X231200000Y-123765000D02*
X231200000Y-123885000D01*
X228540000Y-123765000D02*
X228540000Y-123885000D01*
X230630000Y-123885000D02*
X231200000Y-123885000D01*
X228540000Y-123885000D02*
X229110000Y-123885000D01*
X229870000Y-124970000D02*
X231200000Y-124970000D01*
X231200000Y-124970000D02*
X231200000Y-125730000D01*
X231200000Y-126305000D02*
X231200000Y-126425000D01*
X228540000Y-126305000D02*
X228540000Y-126425000D01*
X230630000Y-126425000D02*
X231200000Y-126425000D01*
X228540000Y-126425000D02*
X229110000Y-126425000D01*
X200660000Y-114810000D02*
X201990000Y-114810000D01*
X201990000Y-114810000D02*
X201990000Y-115570000D01*
X201990000Y-116145000D02*
X201990000Y-116265000D01*
X199330000Y-116145000D02*
X199330000Y-116265000D01*
X201420000Y-116265000D02*
X201990000Y-116265000D01*
X199330000Y-116265000D02*
X199900000Y-116265000D01*
X200660000Y-119890000D02*
X201990000Y-119890000D01*
X201990000Y-119890000D02*
X201990000Y-120650000D01*
X201990000Y-121225000D02*
X201990000Y-121345000D01*
X199330000Y-121225000D02*
X199330000Y-121345000D01*
X201420000Y-121345000D02*
X201990000Y-121345000D01*
X199330000Y-121345000D02*
X199900000Y-121345000D01*
X200660000Y-124970000D02*
X201990000Y-124970000D01*
X201990000Y-124970000D02*
X201990000Y-125730000D01*
X201990000Y-126305000D02*
X201990000Y-126425000D01*
X199330000Y-126305000D02*
X199330000Y-126425000D01*
X201420000Y-126425000D02*
X201990000Y-126425000D01*
X199330000Y-126425000D02*
X199900000Y-126425000D01*
X200660000Y-117350000D02*
X201990000Y-117350000D01*
X201990000Y-117350000D02*
X201990000Y-118110000D01*
X201990000Y-118685000D02*
X201990000Y-118805000D01*
X199330000Y-118685000D02*
X199330000Y-118805000D01*
X201420000Y-118805000D02*
X201990000Y-118805000D01*
X199330000Y-118805000D02*
X199900000Y-118805000D01*
X200660000Y-122430000D02*
X201990000Y-122430000D01*
X201990000Y-122430000D02*
X201990000Y-123190000D01*
X201990000Y-123765000D02*
X201990000Y-123885000D01*
X199330000Y-123765000D02*
X199330000Y-123885000D01*
X201420000Y-123885000D02*
X201990000Y-123885000D01*
X199330000Y-123885000D02*
X199900000Y-123885000D01*
X204470000Y-107190000D02*
X205800000Y-107190000D01*
X205800000Y-107190000D02*
X205800000Y-107950000D01*
X205800000Y-108525000D02*
X205800000Y-108645000D01*
X203140000Y-108525000D02*
X203140000Y-108645000D01*
X205230000Y-108645000D02*
X205800000Y-108645000D01*
X203140000Y-108645000D02*
X203710000Y-108645000D01*
X204470000Y-109730000D02*
X205800000Y-109730000D01*
X205800000Y-109730000D02*
X205800000Y-110490000D01*
X205800000Y-111065000D02*
X205800000Y-111185000D01*
X203140000Y-111065000D02*
X203140000Y-111185000D01*
X205230000Y-111185000D02*
X205800000Y-111185000D01*
X203140000Y-111185000D02*
X203710000Y-111185000D01*
X204470000Y-112270000D02*
X205800000Y-112270000D01*
X205800000Y-112270000D02*
X205800000Y-113030000D01*
X205800000Y-113605000D02*
X205800000Y-113725000D01*
X203140000Y-113605000D02*
X203140000Y-113725000D01*
X205230000Y-113725000D02*
X205800000Y-113725000D01*
X203140000Y-113725000D02*
X203710000Y-113725000D01*
X204470000Y-114810000D02*
X205800000Y-114810000D01*
X205800000Y-114810000D02*
X205800000Y-115570000D01*
X205800000Y-116145000D02*
X205800000Y-116265000D01*
X203140000Y-116145000D02*
X203140000Y-116265000D01*
X205230000Y-116265000D02*
X205800000Y-116265000D01*
X203140000Y-116265000D02*
X203710000Y-116265000D01*
X204470000Y-91950000D02*
X205800000Y-91950000D01*
X205800000Y-91950000D02*
X205800000Y-92710000D01*
X205800000Y-93285000D02*
X205800000Y-93405000D01*
X203140000Y-93285000D02*
X203140000Y-93405000D01*
X205230000Y-93405000D02*
X205800000Y-93405000D01*
X203140000Y-93405000D02*
X203710000Y-93405000D01*
X204470000Y-117350000D02*
X205800000Y-117350000D01*
X205800000Y-117350000D02*
X205800000Y-118110000D01*
X205800000Y-118685000D02*
X205800000Y-118805000D01*
X203140000Y-118685000D02*
X203140000Y-118805000D01*
X205230000Y-118805000D02*
X205800000Y-118805000D01*
X203140000Y-118805000D02*
X203710000Y-118805000D01*
X204470000Y-122430000D02*
X205800000Y-122430000D01*
X205800000Y-122430000D02*
X205800000Y-123190000D01*
X205800000Y-123765000D02*
X205800000Y-123885000D01*
X203140000Y-123765000D02*
X203140000Y-123885000D01*
X205230000Y-123885000D02*
X205800000Y-123885000D01*
X203140000Y-123885000D02*
X203710000Y-123885000D01*
X204470000Y-124970000D02*
X205800000Y-124970000D01*
X205800000Y-124970000D02*
X205800000Y-125730000D01*
X205800000Y-126305000D02*
X205800000Y-126425000D01*
X203140000Y-126305000D02*
X203140000Y-126425000D01*
X205230000Y-126425000D02*
X205800000Y-126425000D01*
X203140000Y-126425000D02*
X203710000Y-126425000D01*
X204470000Y-119890000D02*
X205800000Y-119890000D01*
X205800000Y-119890000D02*
X205800000Y-120650000D01*
X205800000Y-121225000D02*
X205800000Y-121345000D01*
X203140000Y-121225000D02*
X203140000Y-121345000D01*
X205230000Y-121345000D02*
X205800000Y-121345000D01*
X203140000Y-121345000D02*
X203710000Y-121345000D01*
X204470000Y-89410000D02*
X205800000Y-89410000D01*
X205800000Y-89410000D02*
X205800000Y-90170000D01*
X205800000Y-90745000D02*
X205800000Y-90865000D01*
X203140000Y-90745000D02*
X203140000Y-90865000D01*
X205230000Y-90865000D02*
X205800000Y-90865000D01*
X203140000Y-90865000D02*
X203710000Y-90865000D01*
%TO.C,J13*%
X229870000Y-99570000D02*
X231200000Y-99570000D01*
X231200000Y-99570000D02*
X231200000Y-100330000D01*
X231200000Y-100905000D02*
X231200000Y-101025000D01*
X228540000Y-100905000D02*
X228540000Y-101025000D01*
X230630000Y-101025000D02*
X231200000Y-101025000D01*
X228540000Y-101025000D02*
X229110000Y-101025000D01*
X229870000Y-102110000D02*
X231200000Y-102110000D01*
X231200000Y-102110000D02*
X231200000Y-102870000D01*
X231200000Y-103445000D02*
X231200000Y-103565000D01*
X228540000Y-103445000D02*
X228540000Y-103565000D01*
X230630000Y-103565000D02*
X231200000Y-103565000D01*
X228540000Y-103565000D02*
X229110000Y-103565000D01*
X229870000Y-104650000D02*
X231200000Y-104650000D01*
X231200000Y-104650000D02*
X231200000Y-105410000D01*
X231200000Y-105985000D02*
X231200000Y-106105000D01*
X228540000Y-105985000D02*
X228540000Y-106105000D01*
X230630000Y-106105000D02*
X231200000Y-106105000D01*
X228540000Y-106105000D02*
X229110000Y-106105000D01*
X229870000Y-94490000D02*
X231200000Y-94490000D01*
X231200000Y-94490000D02*
X231200000Y-95250000D01*
X231200000Y-95825000D02*
X231200000Y-95945000D01*
X228540000Y-95825000D02*
X228540000Y-95945000D01*
X230630000Y-95945000D02*
X231200000Y-95945000D01*
X228540000Y-95945000D02*
X229110000Y-95945000D01*
X229870000Y-91950000D02*
X231200000Y-91950000D01*
X231200000Y-91950000D02*
X231200000Y-92710000D01*
X231200000Y-93285000D02*
X231200000Y-93405000D01*
X228540000Y-93285000D02*
X228540000Y-93405000D01*
X230630000Y-93405000D02*
X231200000Y-93405000D01*
X228540000Y-93405000D02*
X229110000Y-93405000D01*
X229870000Y-89410000D02*
X231200000Y-89410000D01*
X231200000Y-89410000D02*
X231200000Y-90170000D01*
X231200000Y-90745000D02*
X231200000Y-90865000D01*
X228540000Y-90745000D02*
X228540000Y-90865000D01*
X230630000Y-90865000D02*
X231200000Y-90865000D01*
X228540000Y-90865000D02*
X229110000Y-90865000D01*
X229870000Y-107190000D02*
X231200000Y-107190000D01*
X231200000Y-107190000D02*
X231200000Y-107950000D01*
X231200000Y-108525000D02*
X231200000Y-108645000D01*
X228540000Y-108525000D02*
X228540000Y-108645000D01*
X230630000Y-108645000D02*
X231200000Y-108645000D01*
X228540000Y-108645000D02*
X229110000Y-108645000D01*
X229870000Y-109730000D02*
X231200000Y-109730000D01*
X231200000Y-109730000D02*
X231200000Y-110490000D01*
X231200000Y-111065000D02*
X231200000Y-111185000D01*
X228540000Y-111065000D02*
X228540000Y-111185000D01*
X230630000Y-111185000D02*
X231200000Y-111185000D01*
X228540000Y-111185000D02*
X229110000Y-111185000D01*
X229870000Y-112270000D02*
X231200000Y-112270000D01*
X231200000Y-112270000D02*
X231200000Y-113030000D01*
X231200000Y-113605000D02*
X231200000Y-113725000D01*
X228540000Y-113605000D02*
X228540000Y-113725000D01*
X230630000Y-113725000D02*
X231200000Y-113725000D01*
X228540000Y-113725000D02*
X229110000Y-113725000D01*
X200660000Y-99570000D02*
X201990000Y-99570000D01*
X201990000Y-99570000D02*
X201990000Y-100330000D01*
X201990000Y-100905000D02*
X201990000Y-101025000D01*
X199330000Y-100905000D02*
X199330000Y-101025000D01*
X201420000Y-101025000D02*
X201990000Y-101025000D01*
X199330000Y-101025000D02*
X199900000Y-101025000D01*
X200660000Y-104650000D02*
X201990000Y-104650000D01*
X201990000Y-104650000D02*
X201990000Y-105410000D01*
X201990000Y-105985000D02*
X201990000Y-106105000D01*
X199330000Y-105985000D02*
X199330000Y-106105000D01*
X201420000Y-106105000D02*
X201990000Y-106105000D01*
X199330000Y-106105000D02*
X199900000Y-106105000D01*
X200660000Y-102110000D02*
X201990000Y-102110000D01*
X201990000Y-102110000D02*
X201990000Y-102870000D01*
X201990000Y-103445000D02*
X201990000Y-103565000D01*
X199330000Y-103445000D02*
X199330000Y-103565000D01*
X201420000Y-103565000D02*
X201990000Y-103565000D01*
X199330000Y-103565000D02*
X199900000Y-103565000D01*
X200660000Y-89410000D02*
X201990000Y-89410000D01*
X201990000Y-89410000D02*
X201990000Y-90170000D01*
X201990000Y-90745000D02*
X201990000Y-90865000D01*
X199330000Y-90745000D02*
X199330000Y-90865000D01*
X201420000Y-90865000D02*
X201990000Y-90865000D01*
X199330000Y-90865000D02*
X199900000Y-90865000D01*
X200660000Y-91950000D02*
X201990000Y-91950000D01*
X201990000Y-91950000D02*
X201990000Y-92710000D01*
X201990000Y-93285000D02*
X201990000Y-93405000D01*
X199330000Y-93285000D02*
X199330000Y-93405000D01*
X201420000Y-93405000D02*
X201990000Y-93405000D01*
X199330000Y-93405000D02*
X199900000Y-93405000D01*
X200660000Y-109730000D02*
X201990000Y-109730000D01*
X201990000Y-109730000D02*
X201990000Y-110490000D01*
X201990000Y-111065000D02*
X201990000Y-111185000D01*
X199330000Y-111065000D02*
X199330000Y-111185000D01*
X201420000Y-111185000D02*
X201990000Y-111185000D01*
X199330000Y-111185000D02*
X199900000Y-111185000D01*
X200660000Y-112270000D02*
X201990000Y-112270000D01*
X201990000Y-112270000D02*
X201990000Y-113030000D01*
X201990000Y-113605000D02*
X201990000Y-113725000D01*
X199330000Y-113605000D02*
X199330000Y-113725000D01*
X201420000Y-113725000D02*
X201990000Y-113725000D01*
X199330000Y-113725000D02*
X199900000Y-113725000D01*
X200660000Y-107190000D02*
X201990000Y-107190000D01*
X201990000Y-107190000D02*
X201990000Y-107950000D01*
X201990000Y-108525000D02*
X201990000Y-108645000D01*
X199330000Y-108525000D02*
X199330000Y-108645000D01*
X201420000Y-108645000D02*
X201990000Y-108645000D01*
X199330000Y-108645000D02*
X199900000Y-108645000D01*
X229870000Y-97030000D02*
X231200000Y-97030000D01*
X231200000Y-97030000D02*
X231200000Y-97790000D01*
X231200000Y-98365000D02*
X231200000Y-98485000D01*
X228540000Y-98365000D02*
X228540000Y-98485000D01*
X230630000Y-98485000D02*
X231200000Y-98485000D01*
X228540000Y-98485000D02*
X229110000Y-98485000D01*
X233680000Y-97030000D02*
X235010000Y-97030000D01*
X235010000Y-97030000D02*
X235010000Y-97790000D01*
X235010000Y-98365000D02*
X235010000Y-98485000D01*
X232350000Y-98365000D02*
X232350000Y-98485000D01*
X234440000Y-98485000D02*
X235010000Y-98485000D01*
X232350000Y-98485000D02*
X232920000Y-98485000D01*
X233680000Y-99570000D02*
X235010000Y-99570000D01*
X235010000Y-99570000D02*
X235010000Y-100330000D01*
X235010000Y-100905000D02*
X235010000Y-101025000D01*
X232350000Y-100905000D02*
X232350000Y-101025000D01*
X234440000Y-101025000D02*
X235010000Y-101025000D01*
X232350000Y-101025000D02*
X232920000Y-101025000D01*
X233680000Y-102110000D02*
X235010000Y-102110000D01*
X235010000Y-102110000D02*
X235010000Y-102870000D01*
X235010000Y-103445000D02*
X235010000Y-103565000D01*
X232350000Y-103445000D02*
X232350000Y-103565000D01*
X234440000Y-103565000D02*
X235010000Y-103565000D01*
X232350000Y-103565000D02*
X232920000Y-103565000D01*
X233680000Y-104650000D02*
X235010000Y-104650000D01*
X235010000Y-104650000D02*
X235010000Y-105410000D01*
X235010000Y-105985000D02*
X235010000Y-106105000D01*
X232350000Y-105985000D02*
X232350000Y-106105000D01*
X234440000Y-106105000D02*
X235010000Y-106105000D01*
X232350000Y-106105000D02*
X232920000Y-106105000D01*
X204470000Y-99570000D02*
X205800000Y-99570000D01*
X205800000Y-99570000D02*
X205800000Y-100330000D01*
X205800000Y-100905000D02*
X205800000Y-101025000D01*
X203140000Y-100905000D02*
X203140000Y-101025000D01*
X205230000Y-101025000D02*
X205800000Y-101025000D01*
X203140000Y-101025000D02*
X203710000Y-101025000D01*
X204470000Y-102110000D02*
X205800000Y-102110000D01*
X205800000Y-102110000D02*
X205800000Y-102870000D01*
X205800000Y-103445000D02*
X205800000Y-103565000D01*
X203140000Y-103445000D02*
X203140000Y-103565000D01*
X205230000Y-103565000D02*
X205800000Y-103565000D01*
X203140000Y-103565000D02*
X203710000Y-103565000D01*
X204470000Y-104650000D02*
X205800000Y-104650000D01*
X205800000Y-104650000D02*
X205800000Y-105410000D01*
X205800000Y-105985000D02*
X205800000Y-106105000D01*
X203140000Y-105985000D02*
X203140000Y-106105000D01*
X205230000Y-106105000D02*
X205800000Y-106105000D01*
X203140000Y-106105000D02*
X203710000Y-106105000D01*
%TO.C,Q4*%
X233720000Y-74390000D02*
X223480000Y-74390000D01*
X233720000Y-69749000D02*
X223480000Y-69749000D01*
X233720000Y-74390000D02*
X233720000Y-69749000D01*
X223480000Y-74390000D02*
X223480000Y-69749000D01*
X233720000Y-72880000D02*
X223480000Y-72880000D01*
X230450000Y-74390000D02*
X230450000Y-72880000D01*
X226749000Y-74390000D02*
X226749000Y-72880000D01*
%TO.C,J1*%
X193040000Y-141700000D02*
X193725000Y-141700000D01*
X193725000Y-141700000D02*
X193725000Y-142510000D01*
X193560000Y-143955898D02*
X193560000Y-144320000D01*
X191940000Y-144320000D02*
X193560000Y-144320000D01*
X191940000Y-143010000D02*
X191940000Y-144320000D01*
X191940000Y-143010000D02*
X192355000Y-143010000D01*
%TO.C,J2*%
X197350000Y-68410000D02*
X197350000Y-67995000D01*
X197350000Y-68410000D02*
X198660000Y-68410000D01*
X198660000Y-68410000D02*
X198660000Y-66790000D01*
X198295898Y-66790000D02*
X198660000Y-66790000D01*
X196040000Y-66625000D02*
X196850000Y-66625000D01*
X196040000Y-67310000D02*
X196040000Y-66625000D01*
%TO.C,J3*%
X191075000Y-107265000D02*
X191770000Y-107265000D01*
X191075000Y-107950000D02*
X191075000Y-107265000D01*
X192378276Y-108635000D02*
X192465000Y-108635000D01*
X191075000Y-108635000D02*
X191161724Y-108635000D01*
X192465000Y-108635000D02*
X192465000Y-108510000D01*
X191075000Y-108635000D02*
X191075000Y-108510000D01*
X191075000Y-108635000D02*
X192465000Y-108635000D01*
%TO.C,J4*%
X202505000Y-137745000D02*
X203200000Y-137745000D01*
X202505000Y-138430000D02*
X202505000Y-137745000D01*
X203808276Y-139115000D02*
X203895000Y-139115000D01*
X202505000Y-139115000D02*
X202591724Y-139115000D01*
X203895000Y-139115000D02*
X203895000Y-138990000D01*
X202505000Y-139115000D02*
X202505000Y-138990000D01*
X202505000Y-139115000D02*
X203895000Y-139115000D01*
%TO.C,J6*%
X212665000Y-148005000D02*
X214055000Y-148005000D01*
X212665000Y-148005000D02*
X212665000Y-147880000D01*
X214055000Y-148005000D02*
X214055000Y-147880000D01*
X212665000Y-148005000D02*
X212751724Y-148005000D01*
X213968276Y-148005000D02*
X214055000Y-148005000D01*
X212665000Y-147320000D02*
X212665000Y-146635000D01*
X212665000Y-146635000D02*
X213360000Y-146635000D01*
%TO.C,J7*%
X211395000Y-67895000D02*
X212090000Y-67895000D01*
X211395000Y-68580000D02*
X211395000Y-67895000D01*
X212698276Y-69265000D02*
X212785000Y-69265000D01*
X211395000Y-69265000D02*
X211481724Y-69265000D01*
X212785000Y-69265000D02*
X212785000Y-69140000D01*
X211395000Y-69265000D02*
X211395000Y-69140000D01*
X211395000Y-69265000D02*
X212785000Y-69265000D01*
%TO.C,J8*%
X221555000Y-75515000D02*
X222250000Y-75515000D01*
X221555000Y-76200000D02*
X221555000Y-75515000D01*
X222858276Y-76885000D02*
X222945000Y-76885000D01*
X221555000Y-76885000D02*
X221641724Y-76885000D01*
X222945000Y-76885000D02*
X222945000Y-76760000D01*
X221555000Y-76885000D02*
X221555000Y-76760000D01*
X221555000Y-76885000D02*
X222945000Y-76885000D01*
%TO.C,J9*%
X221555000Y-139115000D02*
X222945000Y-139115000D01*
X221555000Y-139115000D02*
X221555000Y-138990000D01*
X222945000Y-139115000D02*
X222945000Y-138990000D01*
X221555000Y-139115000D02*
X221641724Y-139115000D01*
X222858276Y-139115000D02*
X222945000Y-139115000D01*
X221555000Y-138430000D02*
X221555000Y-137745000D01*
X221555000Y-137745000D02*
X222250000Y-137745000D01*
%TO.C,J10*%
X234255000Y-132765000D02*
X235645000Y-132765000D01*
X234255000Y-132765000D02*
X234255000Y-132640000D01*
X235645000Y-132765000D02*
X235645000Y-132640000D01*
X234255000Y-132765000D02*
X234341724Y-132765000D01*
X235558276Y-132765000D02*
X235645000Y-132765000D01*
X234255000Y-132080000D02*
X234255000Y-131395000D01*
X234255000Y-131395000D02*
X234950000Y-131395000D01*
%TO.C,J11*%
X230330000Y-67310000D02*
X230330000Y-66625000D01*
X230330000Y-66625000D02*
X231140000Y-66625000D01*
X232585898Y-66790000D02*
X232950000Y-66790000D01*
X232950000Y-68410000D02*
X232950000Y-66790000D01*
X231640000Y-68410000D02*
X232950000Y-68410000D01*
X231640000Y-68410000D02*
X231640000Y-67995000D01*
%TO.C,J12*%
X233850000Y-144010000D02*
X234265000Y-144010000D01*
X233850000Y-144010000D02*
X233850000Y-145320000D01*
X233850000Y-145320000D02*
X235470000Y-145320000D01*
X235470000Y-144955898D02*
X235470000Y-145320000D01*
X235635000Y-142700000D02*
X235635000Y-143510000D01*
X234950000Y-142700000D02*
X235635000Y-142700000D01*
%TO.C,Q1*%
X205780000Y-145510000D02*
X195540000Y-145510000D01*
X205780000Y-140869000D02*
X195540000Y-140869000D01*
X205780000Y-145510000D02*
X205780000Y-140869000D01*
X195540000Y-145510000D02*
X195540000Y-140869000D01*
X205780000Y-144000000D02*
X195540000Y-144000000D01*
X202510000Y-145510000D02*
X202510000Y-144000000D01*
X198809000Y-145510000D02*
X198809000Y-144000000D01*
%TO.C,Q2*%
X198701000Y-69120000D02*
X198701000Y-70630000D01*
X195000000Y-69120000D02*
X195000000Y-70630000D01*
X191730000Y-70630000D02*
X201970000Y-70630000D01*
X201970000Y-69120000D02*
X201970000Y-73761000D01*
X191730000Y-69120000D02*
X191730000Y-73761000D01*
X191730000Y-73761000D02*
X201970000Y-73761000D01*
X191730000Y-69120000D02*
X201970000Y-69120000D01*
%TO.C,Q3*%
X232450000Y-145510000D02*
X222210000Y-145510000D01*
X232450000Y-140869000D02*
X222210000Y-140869000D01*
X232450000Y-145510000D02*
X232450000Y-140869000D01*
X222210000Y-145510000D02*
X222210000Y-140869000D01*
X232450000Y-144000000D02*
X222210000Y-144000000D01*
X229180000Y-145510000D02*
X229180000Y-144000000D01*
X225479000Y-145510000D02*
X225479000Y-144000000D01*
%TO.C,R1*%
X200040000Y-137510000D02*
X196200000Y-137510000D01*
X200040000Y-139350000D02*
X196200000Y-139350000D01*
%TO.C,R3*%
X229250000Y-139350000D02*
X225410000Y-139350000D01*
X229250000Y-137510000D02*
X225410000Y-137510000D01*
%TO.C,R4*%
X230520000Y-75280000D02*
X226680000Y-75280000D01*
X230520000Y-77120000D02*
X226680000Y-77120000D01*
%TO.C,R2*%
D11*
X196683333Y-78826380D02*
X196350000Y-78350190D01*
X196111904Y-78826380D02*
X196111904Y-77826380D01*
X196492857Y-77826380D01*
X196588095Y-77874000D01*
X196635714Y-77921619D01*
X196683333Y-78016857D01*
X196683333Y-78159714D01*
X196635714Y-78254952D01*
X196588095Y-78302571D01*
X196492857Y-78350190D01*
X196111904Y-78350190D01*
X197064285Y-77921619D02*
X197111904Y-77874000D01*
X197207142Y-77826380D01*
X197445238Y-77826380D01*
X197540476Y-77874000D01*
X197588095Y-77921619D01*
X197635714Y-78016857D01*
X197635714Y-78112095D01*
X197588095Y-78254952D01*
X197016666Y-78826380D01*
X197635714Y-78826380D01*
%TO.C,J5*%
X203628666Y-77466380D02*
X203628666Y-78180666D01*
X203581047Y-78323523D01*
X203485809Y-78418761D01*
X203342952Y-78466380D01*
X203247714Y-78466380D01*
X204581047Y-77466380D02*
X204104857Y-77466380D01*
X204057238Y-77942571D01*
X204104857Y-77894952D01*
X204200095Y-77847333D01*
X204438190Y-77847333D01*
X204533428Y-77894952D01*
X204581047Y-77942571D01*
X204628666Y-78037809D01*
X204628666Y-78275904D01*
X204581047Y-78371142D01*
X204533428Y-78418761D01*
X204438190Y-78466380D01*
X204200095Y-78466380D01*
X204104857Y-78418761D01*
X204057238Y-78371142D01*
%TO.C,J13*%
X228552476Y-79934380D02*
X228552476Y-80648666D01*
X228504857Y-80791523D01*
X228409619Y-80886761D01*
X228266761Y-80934380D01*
X228171523Y-80934380D01*
X229552476Y-80934380D02*
X228981047Y-80934380D01*
X229266761Y-80934380D02*
X229266761Y-79934380D01*
X229171523Y-80077238D01*
X229076285Y-80172476D01*
X228981047Y-80220095D01*
X229885809Y-79934380D02*
X230504857Y-79934380D01*
X230171523Y-80315333D01*
X230314380Y-80315333D01*
X230409619Y-80362952D01*
X230457238Y-80410571D01*
X230504857Y-80505809D01*
X230504857Y-80743904D01*
X230457238Y-80839142D01*
X230409619Y-80886761D01*
X230314380Y-80934380D01*
X230028666Y-80934380D01*
X229933428Y-80886761D01*
X229885809Y-80839142D01*
%TO.C,H2*%
X214122380Y-107241904D02*
X213122380Y-107241904D01*
X213598571Y-107241904D02*
X213598571Y-106670476D01*
X214122380Y-106670476D02*
X213122380Y-106670476D01*
X213217619Y-106241904D02*
X213170000Y-106194285D01*
X213122380Y-106099047D01*
X213122380Y-105860952D01*
X213170000Y-105765714D01*
X213217619Y-105718095D01*
X213312857Y-105670476D01*
X213408095Y-105670476D01*
X213550952Y-105718095D01*
X214122380Y-106289523D01*
X214122380Y-105670476D01*
%TO.C,H1*%
X214122380Y-113791904D02*
X213122380Y-113791904D01*
X213598571Y-113791904D02*
X213598571Y-113220476D01*
X214122380Y-113220476D02*
X213122380Y-113220476D01*
X214122380Y-112220476D02*
X214122380Y-112791904D01*
X214122380Y-112506190D02*
X213122380Y-112506190D01*
X213265238Y-112601428D01*
X213360476Y-112696666D01*
X213408095Y-112791904D01*
%TO.C,J13*%
X199850476Y-92567380D02*
X199850476Y-93281666D01*
X199802857Y-93424523D01*
X199707619Y-93519761D01*
X199564761Y-93567380D01*
X199469523Y-93567380D01*
X200850476Y-93567380D02*
X200279047Y-93567380D01*
X200564761Y-93567380D02*
X200564761Y-92567380D01*
X200469523Y-92710238D01*
X200374285Y-92805476D01*
X200279047Y-92853095D01*
X201183809Y-92567380D02*
X201802857Y-92567380D01*
X201469523Y-92948333D01*
X201612380Y-92948333D01*
X201707619Y-92995952D01*
X201755238Y-93043571D01*
X201802857Y-93138809D01*
X201802857Y-93376904D01*
X201755238Y-93472142D01*
X201707619Y-93519761D01*
X201612380Y-93567380D01*
X201326666Y-93567380D01*
X201231428Y-93519761D01*
X201183809Y-93472142D01*
X203660476Y-92567380D02*
X203660476Y-93281666D01*
X203612857Y-93424523D01*
X203517619Y-93519761D01*
X203374761Y-93567380D01*
X203279523Y-93567380D01*
X204660476Y-93567380D02*
X204089047Y-93567380D01*
X204374761Y-93567380D02*
X204374761Y-92567380D01*
X204279523Y-92710238D01*
X204184285Y-92805476D01*
X204089047Y-92853095D01*
X204993809Y-92567380D02*
X205612857Y-92567380D01*
X205279523Y-92948333D01*
X205422380Y-92948333D01*
X205517619Y-92995952D01*
X205565238Y-93043571D01*
X205612857Y-93138809D01*
X205612857Y-93376904D01*
X205565238Y-93472142D01*
X205517619Y-93519761D01*
X205422380Y-93567380D01*
X205136666Y-93567380D01*
X205041428Y-93519761D01*
X204993809Y-93472142D01*
X199850476Y-95107380D02*
X199850476Y-95821666D01*
X199802857Y-95964523D01*
X199707619Y-96059761D01*
X199564761Y-96107380D01*
X199469523Y-96107380D01*
X200850476Y-96107380D02*
X200279047Y-96107380D01*
X200564761Y-96107380D02*
X200564761Y-95107380D01*
X200469523Y-95250238D01*
X200374285Y-95345476D01*
X200279047Y-95393095D01*
X201183809Y-95107380D02*
X201802857Y-95107380D01*
X201469523Y-95488333D01*
X201612380Y-95488333D01*
X201707619Y-95535952D01*
X201755238Y-95583571D01*
X201802857Y-95678809D01*
X201802857Y-95916904D01*
X201755238Y-96012142D01*
X201707619Y-96059761D01*
X201612380Y-96107380D01*
X201326666Y-96107380D01*
X201231428Y-96059761D01*
X201183809Y-96012142D01*
X203660476Y-95107380D02*
X203660476Y-95821666D01*
X203612857Y-95964523D01*
X203517619Y-96059761D01*
X203374761Y-96107380D01*
X203279523Y-96107380D01*
X204660476Y-96107380D02*
X204089047Y-96107380D01*
X204374761Y-96107380D02*
X204374761Y-95107380D01*
X204279523Y-95250238D01*
X204184285Y-95345476D01*
X204089047Y-95393095D01*
X204993809Y-95107380D02*
X205612857Y-95107380D01*
X205279523Y-95488333D01*
X205422380Y-95488333D01*
X205517619Y-95535952D01*
X205565238Y-95583571D01*
X205612857Y-95678809D01*
X205612857Y-95916904D01*
X205565238Y-96012142D01*
X205517619Y-96059761D01*
X205422380Y-96107380D01*
X205136666Y-96107380D01*
X205041428Y-96059761D01*
X204993809Y-96012142D01*
%TO.C,J14*%
X232870476Y-105267380D02*
X232870476Y-105981666D01*
X232822857Y-106124523D01*
X232727619Y-106219761D01*
X232584761Y-106267380D01*
X232489523Y-106267380D01*
X233870476Y-106267380D02*
X233299047Y-106267380D01*
X233584761Y-106267380D02*
X233584761Y-105267380D01*
X233489523Y-105410238D01*
X233394285Y-105505476D01*
X233299047Y-105553095D01*
X234727619Y-105600714D02*
X234727619Y-106267380D01*
X234489523Y-105219761D02*
X234251428Y-105934047D01*
X234870476Y-105934047D01*
X232870476Y-107807380D02*
X232870476Y-108521666D01*
X232822857Y-108664523D01*
X232727619Y-108759761D01*
X232584761Y-108807380D01*
X232489523Y-108807380D01*
X233870476Y-108807380D02*
X233299047Y-108807380D01*
X233584761Y-108807380D02*
X233584761Y-107807380D01*
X233489523Y-107950238D01*
X233394285Y-108045476D01*
X233299047Y-108093095D01*
X234727619Y-108140714D02*
X234727619Y-108807380D01*
X234489523Y-107759761D02*
X234251428Y-108474047D01*
X234870476Y-108474047D01*
X232870476Y-110347380D02*
X232870476Y-111061666D01*
X232822857Y-111204523D01*
X232727619Y-111299761D01*
X232584761Y-111347380D01*
X232489523Y-111347380D01*
X233870476Y-111347380D02*
X233299047Y-111347380D01*
X233584761Y-111347380D02*
X233584761Y-110347380D01*
X233489523Y-110490238D01*
X233394285Y-110585476D01*
X233299047Y-110633095D01*
X234727619Y-110680714D02*
X234727619Y-111347380D01*
X234489523Y-110299761D02*
X234251428Y-111014047D01*
X234870476Y-111014047D01*
X232870476Y-112887380D02*
X232870476Y-113601666D01*
X232822857Y-113744523D01*
X232727619Y-113839761D01*
X232584761Y-113887380D01*
X232489523Y-113887380D01*
X233870476Y-113887380D02*
X233299047Y-113887380D01*
X233584761Y-113887380D02*
X233584761Y-112887380D01*
X233489523Y-113030238D01*
X233394285Y-113125476D01*
X233299047Y-113173095D01*
X234727619Y-113220714D02*
X234727619Y-113887380D01*
X234489523Y-112839761D02*
X234251428Y-113554047D01*
X234870476Y-113554047D01*
X232870476Y-92567380D02*
X232870476Y-93281666D01*
X232822857Y-93424523D01*
X232727619Y-93519761D01*
X232584761Y-93567380D01*
X232489523Y-93567380D01*
X233870476Y-93567380D02*
X233299047Y-93567380D01*
X233584761Y-93567380D02*
X233584761Y-92567380D01*
X233489523Y-92710238D01*
X233394285Y-92805476D01*
X233299047Y-92853095D01*
X234727619Y-92900714D02*
X234727619Y-93567380D01*
X234489523Y-92519761D02*
X234251428Y-93234047D01*
X234870476Y-93234047D01*
X232870476Y-90027380D02*
X232870476Y-90741666D01*
X232822857Y-90884523D01*
X232727619Y-90979761D01*
X232584761Y-91027380D01*
X232489523Y-91027380D01*
X233870476Y-91027380D02*
X233299047Y-91027380D01*
X233584761Y-91027380D02*
X233584761Y-90027380D01*
X233489523Y-90170238D01*
X233394285Y-90265476D01*
X233299047Y-90313095D01*
X234727619Y-90360714D02*
X234727619Y-91027380D01*
X234489523Y-89979761D02*
X234251428Y-90694047D01*
X234870476Y-90694047D01*
X232870476Y-87487380D02*
X232870476Y-88201666D01*
X232822857Y-88344523D01*
X232727619Y-88439761D01*
X232584761Y-88487380D01*
X232489523Y-88487380D01*
X233870476Y-88487380D02*
X233299047Y-88487380D01*
X233584761Y-88487380D02*
X233584761Y-87487380D01*
X233489523Y-87630238D01*
X233394285Y-87725476D01*
X233299047Y-87773095D01*
X234727619Y-87820714D02*
X234727619Y-88487380D01*
X234489523Y-87439761D02*
X234251428Y-88154047D01*
X234870476Y-88154047D01*
X232870476Y-115427380D02*
X232870476Y-116141666D01*
X232822857Y-116284523D01*
X232727619Y-116379761D01*
X232584761Y-116427380D01*
X232489523Y-116427380D01*
X233870476Y-116427380D02*
X233299047Y-116427380D01*
X233584761Y-116427380D02*
X233584761Y-115427380D01*
X233489523Y-115570238D01*
X233394285Y-115665476D01*
X233299047Y-115713095D01*
X234727619Y-115760714D02*
X234727619Y-116427380D01*
X234489523Y-115379761D02*
X234251428Y-116094047D01*
X234870476Y-116094047D01*
X232870476Y-117967380D02*
X232870476Y-118681666D01*
X232822857Y-118824523D01*
X232727619Y-118919761D01*
X232584761Y-118967380D01*
X232489523Y-118967380D01*
X233870476Y-118967380D02*
X233299047Y-118967380D01*
X233584761Y-118967380D02*
X233584761Y-117967380D01*
X233489523Y-118110238D01*
X233394285Y-118205476D01*
X233299047Y-118253095D01*
X234727619Y-118300714D02*
X234727619Y-118967380D01*
X234489523Y-117919761D02*
X234251428Y-118634047D01*
X234870476Y-118634047D01*
X232870476Y-120507380D02*
X232870476Y-121221666D01*
X232822857Y-121364523D01*
X232727619Y-121459761D01*
X232584761Y-121507380D01*
X232489523Y-121507380D01*
X233870476Y-121507380D02*
X233299047Y-121507380D01*
X233584761Y-121507380D02*
X233584761Y-120507380D01*
X233489523Y-120650238D01*
X233394285Y-120745476D01*
X233299047Y-120793095D01*
X234727619Y-120840714D02*
X234727619Y-121507380D01*
X234489523Y-120459761D02*
X234251428Y-121174047D01*
X234870476Y-121174047D01*
X232870476Y-123047380D02*
X232870476Y-123761666D01*
X232822857Y-123904523D01*
X232727619Y-123999761D01*
X232584761Y-124047380D01*
X232489523Y-124047380D01*
X233870476Y-124047380D02*
X233299047Y-124047380D01*
X233584761Y-124047380D02*
X233584761Y-123047380D01*
X233489523Y-123190238D01*
X233394285Y-123285476D01*
X233299047Y-123333095D01*
X234727619Y-123380714D02*
X234727619Y-124047380D01*
X234489523Y-122999761D02*
X234251428Y-123714047D01*
X234870476Y-123714047D01*
X229060476Y-112887380D02*
X229060476Y-113601666D01*
X229012857Y-113744523D01*
X228917619Y-113839761D01*
X228774761Y-113887380D01*
X228679523Y-113887380D01*
X230060476Y-113887380D02*
X229489047Y-113887380D01*
X229774761Y-113887380D02*
X229774761Y-112887380D01*
X229679523Y-113030238D01*
X229584285Y-113125476D01*
X229489047Y-113173095D01*
X230917619Y-113220714D02*
X230917619Y-113887380D01*
X230679523Y-112839761D02*
X230441428Y-113554047D01*
X231060476Y-113554047D01*
X229060476Y-115427380D02*
X229060476Y-116141666D01*
X229012857Y-116284523D01*
X228917619Y-116379761D01*
X228774761Y-116427380D01*
X228679523Y-116427380D01*
X230060476Y-116427380D02*
X229489047Y-116427380D01*
X229774761Y-116427380D02*
X229774761Y-115427380D01*
X229679523Y-115570238D01*
X229584285Y-115665476D01*
X229489047Y-115713095D01*
X230917619Y-115760714D02*
X230917619Y-116427380D01*
X230679523Y-115379761D02*
X230441428Y-116094047D01*
X231060476Y-116094047D01*
X229060476Y-117967380D02*
X229060476Y-118681666D01*
X229012857Y-118824523D01*
X228917619Y-118919761D01*
X228774761Y-118967380D01*
X228679523Y-118967380D01*
X230060476Y-118967380D02*
X229489047Y-118967380D01*
X229774761Y-118967380D02*
X229774761Y-117967380D01*
X229679523Y-118110238D01*
X229584285Y-118205476D01*
X229489047Y-118253095D01*
X230917619Y-118300714D02*
X230917619Y-118967380D01*
X230679523Y-117919761D02*
X230441428Y-118634047D01*
X231060476Y-118634047D01*
X229060476Y-120507380D02*
X229060476Y-121221666D01*
X229012857Y-121364523D01*
X228917619Y-121459761D01*
X228774761Y-121507380D01*
X228679523Y-121507380D01*
X230060476Y-121507380D02*
X229489047Y-121507380D01*
X229774761Y-121507380D02*
X229774761Y-120507380D01*
X229679523Y-120650238D01*
X229584285Y-120745476D01*
X229489047Y-120793095D01*
X230917619Y-120840714D02*
X230917619Y-121507380D01*
X230679523Y-120459761D02*
X230441428Y-121174047D01*
X231060476Y-121174047D01*
X229060476Y-123047380D02*
X229060476Y-123761666D01*
X229012857Y-123904523D01*
X228917619Y-123999761D01*
X228774761Y-124047380D01*
X228679523Y-124047380D01*
X230060476Y-124047380D02*
X229489047Y-124047380D01*
X229774761Y-124047380D02*
X229774761Y-123047380D01*
X229679523Y-123190238D01*
X229584285Y-123285476D01*
X229489047Y-123333095D01*
X230917619Y-123380714D02*
X230917619Y-124047380D01*
X230679523Y-122999761D02*
X230441428Y-123714047D01*
X231060476Y-123714047D01*
X199850476Y-112887380D02*
X199850476Y-113601666D01*
X199802857Y-113744523D01*
X199707619Y-113839761D01*
X199564761Y-113887380D01*
X199469523Y-113887380D01*
X200850476Y-113887380D02*
X200279047Y-113887380D01*
X200564761Y-113887380D02*
X200564761Y-112887380D01*
X200469523Y-113030238D01*
X200374285Y-113125476D01*
X200279047Y-113173095D01*
X201707619Y-113220714D02*
X201707619Y-113887380D01*
X201469523Y-112839761D02*
X201231428Y-113554047D01*
X201850476Y-113554047D01*
X199850476Y-117967380D02*
X199850476Y-118681666D01*
X199802857Y-118824523D01*
X199707619Y-118919761D01*
X199564761Y-118967380D01*
X199469523Y-118967380D01*
X200850476Y-118967380D02*
X200279047Y-118967380D01*
X200564761Y-118967380D02*
X200564761Y-117967380D01*
X200469523Y-118110238D01*
X200374285Y-118205476D01*
X200279047Y-118253095D01*
X201707619Y-118300714D02*
X201707619Y-118967380D01*
X201469523Y-117919761D02*
X201231428Y-118634047D01*
X201850476Y-118634047D01*
X199850476Y-123047380D02*
X199850476Y-123761666D01*
X199802857Y-123904523D01*
X199707619Y-123999761D01*
X199564761Y-124047380D01*
X199469523Y-124047380D01*
X200850476Y-124047380D02*
X200279047Y-124047380D01*
X200564761Y-124047380D02*
X200564761Y-123047380D01*
X200469523Y-123190238D01*
X200374285Y-123285476D01*
X200279047Y-123333095D01*
X201707619Y-123380714D02*
X201707619Y-124047380D01*
X201469523Y-122999761D02*
X201231428Y-123714047D01*
X201850476Y-123714047D01*
X199850476Y-115427380D02*
X199850476Y-116141666D01*
X199802857Y-116284523D01*
X199707619Y-116379761D01*
X199564761Y-116427380D01*
X199469523Y-116427380D01*
X200850476Y-116427380D02*
X200279047Y-116427380D01*
X200564761Y-116427380D02*
X200564761Y-115427380D01*
X200469523Y-115570238D01*
X200374285Y-115665476D01*
X200279047Y-115713095D01*
X201707619Y-115760714D02*
X201707619Y-116427380D01*
X201469523Y-115379761D02*
X201231428Y-116094047D01*
X201850476Y-116094047D01*
X199850476Y-120507380D02*
X199850476Y-121221666D01*
X199802857Y-121364523D01*
X199707619Y-121459761D01*
X199564761Y-121507380D01*
X199469523Y-121507380D01*
X200850476Y-121507380D02*
X200279047Y-121507380D01*
X200564761Y-121507380D02*
X200564761Y-120507380D01*
X200469523Y-120650238D01*
X200374285Y-120745476D01*
X200279047Y-120793095D01*
X201707619Y-120840714D02*
X201707619Y-121507380D01*
X201469523Y-120459761D02*
X201231428Y-121174047D01*
X201850476Y-121174047D01*
X203660476Y-105267380D02*
X203660476Y-105981666D01*
X203612857Y-106124523D01*
X203517619Y-106219761D01*
X203374761Y-106267380D01*
X203279523Y-106267380D01*
X204660476Y-106267380D02*
X204089047Y-106267380D01*
X204374761Y-106267380D02*
X204374761Y-105267380D01*
X204279523Y-105410238D01*
X204184285Y-105505476D01*
X204089047Y-105553095D01*
X205517619Y-105600714D02*
X205517619Y-106267380D01*
X205279523Y-105219761D02*
X205041428Y-105934047D01*
X205660476Y-105934047D01*
X203660476Y-107807380D02*
X203660476Y-108521666D01*
X203612857Y-108664523D01*
X203517619Y-108759761D01*
X203374761Y-108807380D01*
X203279523Y-108807380D01*
X204660476Y-108807380D02*
X204089047Y-108807380D01*
X204374761Y-108807380D02*
X204374761Y-107807380D01*
X204279523Y-107950238D01*
X204184285Y-108045476D01*
X204089047Y-108093095D01*
X205517619Y-108140714D02*
X205517619Y-108807380D01*
X205279523Y-107759761D02*
X205041428Y-108474047D01*
X205660476Y-108474047D01*
X203660476Y-110347380D02*
X203660476Y-111061666D01*
X203612857Y-111204523D01*
X203517619Y-111299761D01*
X203374761Y-111347380D01*
X203279523Y-111347380D01*
X204660476Y-111347380D02*
X204089047Y-111347380D01*
X204374761Y-111347380D02*
X204374761Y-110347380D01*
X204279523Y-110490238D01*
X204184285Y-110585476D01*
X204089047Y-110633095D01*
X205517619Y-110680714D02*
X205517619Y-111347380D01*
X205279523Y-110299761D02*
X205041428Y-111014047D01*
X205660476Y-111014047D01*
X203660476Y-112887380D02*
X203660476Y-113601666D01*
X203612857Y-113744523D01*
X203517619Y-113839761D01*
X203374761Y-113887380D01*
X203279523Y-113887380D01*
X204660476Y-113887380D02*
X204089047Y-113887380D01*
X204374761Y-113887380D02*
X204374761Y-112887380D01*
X204279523Y-113030238D01*
X204184285Y-113125476D01*
X204089047Y-113173095D01*
X205517619Y-113220714D02*
X205517619Y-113887380D01*
X205279523Y-112839761D02*
X205041428Y-113554047D01*
X205660476Y-113554047D01*
X203660476Y-90027380D02*
X203660476Y-90741666D01*
X203612857Y-90884523D01*
X203517619Y-90979761D01*
X203374761Y-91027380D01*
X203279523Y-91027380D01*
X204660476Y-91027380D02*
X204089047Y-91027380D01*
X204374761Y-91027380D02*
X204374761Y-90027380D01*
X204279523Y-90170238D01*
X204184285Y-90265476D01*
X204089047Y-90313095D01*
X205517619Y-90360714D02*
X205517619Y-91027380D01*
X205279523Y-89979761D02*
X205041428Y-90694047D01*
X205660476Y-90694047D01*
X203660476Y-115427380D02*
X203660476Y-116141666D01*
X203612857Y-116284523D01*
X203517619Y-116379761D01*
X203374761Y-116427380D01*
X203279523Y-116427380D01*
X204660476Y-116427380D02*
X204089047Y-116427380D01*
X204374761Y-116427380D02*
X204374761Y-115427380D01*
X204279523Y-115570238D01*
X204184285Y-115665476D01*
X204089047Y-115713095D01*
X205517619Y-115760714D02*
X205517619Y-116427380D01*
X205279523Y-115379761D02*
X205041428Y-116094047D01*
X205660476Y-116094047D01*
X203660476Y-120507380D02*
X203660476Y-121221666D01*
X203612857Y-121364523D01*
X203517619Y-121459761D01*
X203374761Y-121507380D01*
X203279523Y-121507380D01*
X204660476Y-121507380D02*
X204089047Y-121507380D01*
X204374761Y-121507380D02*
X204374761Y-120507380D01*
X204279523Y-120650238D01*
X204184285Y-120745476D01*
X204089047Y-120793095D01*
X205517619Y-120840714D02*
X205517619Y-121507380D01*
X205279523Y-120459761D02*
X205041428Y-121174047D01*
X205660476Y-121174047D01*
X203660476Y-123047380D02*
X203660476Y-123761666D01*
X203612857Y-123904523D01*
X203517619Y-123999761D01*
X203374761Y-124047380D01*
X203279523Y-124047380D01*
X204660476Y-124047380D02*
X204089047Y-124047380D01*
X204374761Y-124047380D02*
X204374761Y-123047380D01*
X204279523Y-123190238D01*
X204184285Y-123285476D01*
X204089047Y-123333095D01*
X205517619Y-123380714D02*
X205517619Y-124047380D01*
X205279523Y-122999761D02*
X205041428Y-123714047D01*
X205660476Y-123714047D01*
X203660476Y-117967380D02*
X203660476Y-118681666D01*
X203612857Y-118824523D01*
X203517619Y-118919761D01*
X203374761Y-118967380D01*
X203279523Y-118967380D01*
X204660476Y-118967380D02*
X204089047Y-118967380D01*
X204374761Y-118967380D02*
X204374761Y-117967380D01*
X204279523Y-118110238D01*
X204184285Y-118205476D01*
X204089047Y-118253095D01*
X205517619Y-118300714D02*
X205517619Y-118967380D01*
X205279523Y-117919761D02*
X205041428Y-118634047D01*
X205660476Y-118634047D01*
X203660476Y-87487380D02*
X203660476Y-88201666D01*
X203612857Y-88344523D01*
X203517619Y-88439761D01*
X203374761Y-88487380D01*
X203279523Y-88487380D01*
X204660476Y-88487380D02*
X204089047Y-88487380D01*
X204374761Y-88487380D02*
X204374761Y-87487380D01*
X204279523Y-87630238D01*
X204184285Y-87725476D01*
X204089047Y-87773095D01*
X205517619Y-87820714D02*
X205517619Y-88487380D01*
X205279523Y-87439761D02*
X205041428Y-88154047D01*
X205660476Y-88154047D01*
%TO.C,J13*%
X229060476Y-97647380D02*
X229060476Y-98361666D01*
X229012857Y-98504523D01*
X228917619Y-98599761D01*
X228774761Y-98647380D01*
X228679523Y-98647380D01*
X230060476Y-98647380D02*
X229489047Y-98647380D01*
X229774761Y-98647380D02*
X229774761Y-97647380D01*
X229679523Y-97790238D01*
X229584285Y-97885476D01*
X229489047Y-97933095D01*
X230393809Y-97647380D02*
X231012857Y-97647380D01*
X230679523Y-98028333D01*
X230822380Y-98028333D01*
X230917619Y-98075952D01*
X230965238Y-98123571D01*
X231012857Y-98218809D01*
X231012857Y-98456904D01*
X230965238Y-98552142D01*
X230917619Y-98599761D01*
X230822380Y-98647380D01*
X230536666Y-98647380D01*
X230441428Y-98599761D01*
X230393809Y-98552142D01*
X229060476Y-100187380D02*
X229060476Y-100901666D01*
X229012857Y-101044523D01*
X228917619Y-101139761D01*
X228774761Y-101187380D01*
X228679523Y-101187380D01*
X230060476Y-101187380D02*
X229489047Y-101187380D01*
X229774761Y-101187380D02*
X229774761Y-100187380D01*
X229679523Y-100330238D01*
X229584285Y-100425476D01*
X229489047Y-100473095D01*
X230393809Y-100187380D02*
X231012857Y-100187380D01*
X230679523Y-100568333D01*
X230822380Y-100568333D01*
X230917619Y-100615952D01*
X230965238Y-100663571D01*
X231012857Y-100758809D01*
X231012857Y-100996904D01*
X230965238Y-101092142D01*
X230917619Y-101139761D01*
X230822380Y-101187380D01*
X230536666Y-101187380D01*
X230441428Y-101139761D01*
X230393809Y-101092142D01*
X229060476Y-102727380D02*
X229060476Y-103441666D01*
X229012857Y-103584523D01*
X228917619Y-103679761D01*
X228774761Y-103727380D01*
X228679523Y-103727380D01*
X230060476Y-103727380D02*
X229489047Y-103727380D01*
X229774761Y-103727380D02*
X229774761Y-102727380D01*
X229679523Y-102870238D01*
X229584285Y-102965476D01*
X229489047Y-103013095D01*
X230393809Y-102727380D02*
X231012857Y-102727380D01*
X230679523Y-103108333D01*
X230822380Y-103108333D01*
X230917619Y-103155952D01*
X230965238Y-103203571D01*
X231012857Y-103298809D01*
X231012857Y-103536904D01*
X230965238Y-103632142D01*
X230917619Y-103679761D01*
X230822380Y-103727380D01*
X230536666Y-103727380D01*
X230441428Y-103679761D01*
X230393809Y-103632142D01*
X229060476Y-92567380D02*
X229060476Y-93281666D01*
X229012857Y-93424523D01*
X228917619Y-93519761D01*
X228774761Y-93567380D01*
X228679523Y-93567380D01*
X230060476Y-93567380D02*
X229489047Y-93567380D01*
X229774761Y-93567380D02*
X229774761Y-92567380D01*
X229679523Y-92710238D01*
X229584285Y-92805476D01*
X229489047Y-92853095D01*
X230393809Y-92567380D02*
X231012857Y-92567380D01*
X230679523Y-92948333D01*
X230822380Y-92948333D01*
X230917619Y-92995952D01*
X230965238Y-93043571D01*
X231012857Y-93138809D01*
X231012857Y-93376904D01*
X230965238Y-93472142D01*
X230917619Y-93519761D01*
X230822380Y-93567380D01*
X230536666Y-93567380D01*
X230441428Y-93519761D01*
X230393809Y-93472142D01*
X229060476Y-90027380D02*
X229060476Y-90741666D01*
X229012857Y-90884523D01*
X228917619Y-90979761D01*
X228774761Y-91027380D01*
X228679523Y-91027380D01*
X230060476Y-91027380D02*
X229489047Y-91027380D01*
X229774761Y-91027380D02*
X229774761Y-90027380D01*
X229679523Y-90170238D01*
X229584285Y-90265476D01*
X229489047Y-90313095D01*
X230393809Y-90027380D02*
X231012857Y-90027380D01*
X230679523Y-90408333D01*
X230822380Y-90408333D01*
X230917619Y-90455952D01*
X230965238Y-90503571D01*
X231012857Y-90598809D01*
X231012857Y-90836904D01*
X230965238Y-90932142D01*
X230917619Y-90979761D01*
X230822380Y-91027380D01*
X230536666Y-91027380D01*
X230441428Y-90979761D01*
X230393809Y-90932142D01*
X229060476Y-87487380D02*
X229060476Y-88201666D01*
X229012857Y-88344523D01*
X228917619Y-88439761D01*
X228774761Y-88487380D01*
X228679523Y-88487380D01*
X230060476Y-88487380D02*
X229489047Y-88487380D01*
X229774761Y-88487380D02*
X229774761Y-87487380D01*
X229679523Y-87630238D01*
X229584285Y-87725476D01*
X229489047Y-87773095D01*
X230393809Y-87487380D02*
X231012857Y-87487380D01*
X230679523Y-87868333D01*
X230822380Y-87868333D01*
X230917619Y-87915952D01*
X230965238Y-87963571D01*
X231012857Y-88058809D01*
X231012857Y-88296904D01*
X230965238Y-88392142D01*
X230917619Y-88439761D01*
X230822380Y-88487380D01*
X230536666Y-88487380D01*
X230441428Y-88439761D01*
X230393809Y-88392142D01*
X229060476Y-105267380D02*
X229060476Y-105981666D01*
X229012857Y-106124523D01*
X228917619Y-106219761D01*
X228774761Y-106267380D01*
X228679523Y-106267380D01*
X230060476Y-106267380D02*
X229489047Y-106267380D01*
X229774761Y-106267380D02*
X229774761Y-105267380D01*
X229679523Y-105410238D01*
X229584285Y-105505476D01*
X229489047Y-105553095D01*
X230393809Y-105267380D02*
X231012857Y-105267380D01*
X230679523Y-105648333D01*
X230822380Y-105648333D01*
X230917619Y-105695952D01*
X230965238Y-105743571D01*
X231012857Y-105838809D01*
X231012857Y-106076904D01*
X230965238Y-106172142D01*
X230917619Y-106219761D01*
X230822380Y-106267380D01*
X230536666Y-106267380D01*
X230441428Y-106219761D01*
X230393809Y-106172142D01*
X229060476Y-107807380D02*
X229060476Y-108521666D01*
X229012857Y-108664523D01*
X228917619Y-108759761D01*
X228774761Y-108807380D01*
X228679523Y-108807380D01*
X230060476Y-108807380D02*
X229489047Y-108807380D01*
X229774761Y-108807380D02*
X229774761Y-107807380D01*
X229679523Y-107950238D01*
X229584285Y-108045476D01*
X229489047Y-108093095D01*
X230393809Y-107807380D02*
X231012857Y-107807380D01*
X230679523Y-108188333D01*
X230822380Y-108188333D01*
X230917619Y-108235952D01*
X230965238Y-108283571D01*
X231012857Y-108378809D01*
X231012857Y-108616904D01*
X230965238Y-108712142D01*
X230917619Y-108759761D01*
X230822380Y-108807380D01*
X230536666Y-108807380D01*
X230441428Y-108759761D01*
X230393809Y-108712142D01*
X229060476Y-110347380D02*
X229060476Y-111061666D01*
X229012857Y-111204523D01*
X228917619Y-111299761D01*
X228774761Y-111347380D01*
X228679523Y-111347380D01*
X230060476Y-111347380D02*
X229489047Y-111347380D01*
X229774761Y-111347380D02*
X229774761Y-110347380D01*
X229679523Y-110490238D01*
X229584285Y-110585476D01*
X229489047Y-110633095D01*
X230393809Y-110347380D02*
X231012857Y-110347380D01*
X230679523Y-110728333D01*
X230822380Y-110728333D01*
X230917619Y-110775952D01*
X230965238Y-110823571D01*
X231012857Y-110918809D01*
X231012857Y-111156904D01*
X230965238Y-111252142D01*
X230917619Y-111299761D01*
X230822380Y-111347380D01*
X230536666Y-111347380D01*
X230441428Y-111299761D01*
X230393809Y-111252142D01*
X199850476Y-97647380D02*
X199850476Y-98361666D01*
X199802857Y-98504523D01*
X199707619Y-98599761D01*
X199564761Y-98647380D01*
X199469523Y-98647380D01*
X200850476Y-98647380D02*
X200279047Y-98647380D01*
X200564761Y-98647380D02*
X200564761Y-97647380D01*
X200469523Y-97790238D01*
X200374285Y-97885476D01*
X200279047Y-97933095D01*
X201183809Y-97647380D02*
X201802857Y-97647380D01*
X201469523Y-98028333D01*
X201612380Y-98028333D01*
X201707619Y-98075952D01*
X201755238Y-98123571D01*
X201802857Y-98218809D01*
X201802857Y-98456904D01*
X201755238Y-98552142D01*
X201707619Y-98599761D01*
X201612380Y-98647380D01*
X201326666Y-98647380D01*
X201231428Y-98599761D01*
X201183809Y-98552142D01*
X199850476Y-102727380D02*
X199850476Y-103441666D01*
X199802857Y-103584523D01*
X199707619Y-103679761D01*
X199564761Y-103727380D01*
X199469523Y-103727380D01*
X200850476Y-103727380D02*
X200279047Y-103727380D01*
X200564761Y-103727380D02*
X200564761Y-102727380D01*
X200469523Y-102870238D01*
X200374285Y-102965476D01*
X200279047Y-103013095D01*
X201183809Y-102727380D02*
X201802857Y-102727380D01*
X201469523Y-103108333D01*
X201612380Y-103108333D01*
X201707619Y-103155952D01*
X201755238Y-103203571D01*
X201802857Y-103298809D01*
X201802857Y-103536904D01*
X201755238Y-103632142D01*
X201707619Y-103679761D01*
X201612380Y-103727380D01*
X201326666Y-103727380D01*
X201231428Y-103679761D01*
X201183809Y-103632142D01*
X199850476Y-100187380D02*
X199850476Y-100901666D01*
X199802857Y-101044523D01*
X199707619Y-101139761D01*
X199564761Y-101187380D01*
X199469523Y-101187380D01*
X200850476Y-101187380D02*
X200279047Y-101187380D01*
X200564761Y-101187380D02*
X200564761Y-100187380D01*
X200469523Y-100330238D01*
X200374285Y-100425476D01*
X200279047Y-100473095D01*
X201183809Y-100187380D02*
X201802857Y-100187380D01*
X201469523Y-100568333D01*
X201612380Y-100568333D01*
X201707619Y-100615952D01*
X201755238Y-100663571D01*
X201802857Y-100758809D01*
X201802857Y-100996904D01*
X201755238Y-101092142D01*
X201707619Y-101139761D01*
X201612380Y-101187380D01*
X201326666Y-101187380D01*
X201231428Y-101139761D01*
X201183809Y-101092142D01*
X199850476Y-87487380D02*
X199850476Y-88201666D01*
X199802857Y-88344523D01*
X199707619Y-88439761D01*
X199564761Y-88487380D01*
X199469523Y-88487380D01*
X200850476Y-88487380D02*
X200279047Y-88487380D01*
X200564761Y-88487380D02*
X200564761Y-87487380D01*
X200469523Y-87630238D01*
X200374285Y-87725476D01*
X200279047Y-87773095D01*
X201183809Y-87487380D02*
X201802857Y-87487380D01*
X201469523Y-87868333D01*
X201612380Y-87868333D01*
X201707619Y-87915952D01*
X201755238Y-87963571D01*
X201802857Y-88058809D01*
X201802857Y-88296904D01*
X201755238Y-88392142D01*
X201707619Y-88439761D01*
X201612380Y-88487380D01*
X201326666Y-88487380D01*
X201231428Y-88439761D01*
X201183809Y-88392142D01*
X199850476Y-90027380D02*
X199850476Y-90741666D01*
X199802857Y-90884523D01*
X199707619Y-90979761D01*
X199564761Y-91027380D01*
X199469523Y-91027380D01*
X200850476Y-91027380D02*
X200279047Y-91027380D01*
X200564761Y-91027380D02*
X200564761Y-90027380D01*
X200469523Y-90170238D01*
X200374285Y-90265476D01*
X200279047Y-90313095D01*
X201183809Y-90027380D02*
X201802857Y-90027380D01*
X201469523Y-90408333D01*
X201612380Y-90408333D01*
X201707619Y-90455952D01*
X201755238Y-90503571D01*
X201802857Y-90598809D01*
X201802857Y-90836904D01*
X201755238Y-90932142D01*
X201707619Y-90979761D01*
X201612380Y-91027380D01*
X201326666Y-91027380D01*
X201231428Y-90979761D01*
X201183809Y-90932142D01*
X199850476Y-107807380D02*
X199850476Y-108521666D01*
X199802857Y-108664523D01*
X199707619Y-108759761D01*
X199564761Y-108807380D01*
X199469523Y-108807380D01*
X200850476Y-108807380D02*
X200279047Y-108807380D01*
X200564761Y-108807380D02*
X200564761Y-107807380D01*
X200469523Y-107950238D01*
X200374285Y-108045476D01*
X200279047Y-108093095D01*
X201183809Y-107807380D02*
X201802857Y-107807380D01*
X201469523Y-108188333D01*
X201612380Y-108188333D01*
X201707619Y-108235952D01*
X201755238Y-108283571D01*
X201802857Y-108378809D01*
X201802857Y-108616904D01*
X201755238Y-108712142D01*
X201707619Y-108759761D01*
X201612380Y-108807380D01*
X201326666Y-108807380D01*
X201231428Y-108759761D01*
X201183809Y-108712142D01*
X199850476Y-110347380D02*
X199850476Y-111061666D01*
X199802857Y-111204523D01*
X199707619Y-111299761D01*
X199564761Y-111347380D01*
X199469523Y-111347380D01*
X200850476Y-111347380D02*
X200279047Y-111347380D01*
X200564761Y-111347380D02*
X200564761Y-110347380D01*
X200469523Y-110490238D01*
X200374285Y-110585476D01*
X200279047Y-110633095D01*
X201183809Y-110347380D02*
X201802857Y-110347380D01*
X201469523Y-110728333D01*
X201612380Y-110728333D01*
X201707619Y-110775952D01*
X201755238Y-110823571D01*
X201802857Y-110918809D01*
X201802857Y-111156904D01*
X201755238Y-111252142D01*
X201707619Y-111299761D01*
X201612380Y-111347380D01*
X201326666Y-111347380D01*
X201231428Y-111299761D01*
X201183809Y-111252142D01*
X199850476Y-105267380D02*
X199850476Y-105981666D01*
X199802857Y-106124523D01*
X199707619Y-106219761D01*
X199564761Y-106267380D01*
X199469523Y-106267380D01*
X200850476Y-106267380D02*
X200279047Y-106267380D01*
X200564761Y-106267380D02*
X200564761Y-105267380D01*
X200469523Y-105410238D01*
X200374285Y-105505476D01*
X200279047Y-105553095D01*
X201183809Y-105267380D02*
X201802857Y-105267380D01*
X201469523Y-105648333D01*
X201612380Y-105648333D01*
X201707619Y-105695952D01*
X201755238Y-105743571D01*
X201802857Y-105838809D01*
X201802857Y-106076904D01*
X201755238Y-106172142D01*
X201707619Y-106219761D01*
X201612380Y-106267380D01*
X201326666Y-106267380D01*
X201231428Y-106219761D01*
X201183809Y-106172142D01*
X229060476Y-95107380D02*
X229060476Y-95821666D01*
X229012857Y-95964523D01*
X228917619Y-96059761D01*
X228774761Y-96107380D01*
X228679523Y-96107380D01*
X230060476Y-96107380D02*
X229489047Y-96107380D01*
X229774761Y-96107380D02*
X229774761Y-95107380D01*
X229679523Y-95250238D01*
X229584285Y-95345476D01*
X229489047Y-95393095D01*
X230393809Y-95107380D02*
X231012857Y-95107380D01*
X230679523Y-95488333D01*
X230822380Y-95488333D01*
X230917619Y-95535952D01*
X230965238Y-95583571D01*
X231012857Y-95678809D01*
X231012857Y-95916904D01*
X230965238Y-96012142D01*
X230917619Y-96059761D01*
X230822380Y-96107380D01*
X230536666Y-96107380D01*
X230441428Y-96059761D01*
X230393809Y-96012142D01*
X232870476Y-95107380D02*
X232870476Y-95821666D01*
X232822857Y-95964523D01*
X232727619Y-96059761D01*
X232584761Y-96107380D01*
X232489523Y-96107380D01*
X233870476Y-96107380D02*
X233299047Y-96107380D01*
X233584761Y-96107380D02*
X233584761Y-95107380D01*
X233489523Y-95250238D01*
X233394285Y-95345476D01*
X233299047Y-95393095D01*
X234203809Y-95107380D02*
X234822857Y-95107380D01*
X234489523Y-95488333D01*
X234632380Y-95488333D01*
X234727619Y-95535952D01*
X234775238Y-95583571D01*
X234822857Y-95678809D01*
X234822857Y-95916904D01*
X234775238Y-96012142D01*
X234727619Y-96059761D01*
X234632380Y-96107380D01*
X234346666Y-96107380D01*
X234251428Y-96059761D01*
X234203809Y-96012142D01*
X232870476Y-97647380D02*
X232870476Y-98361666D01*
X232822857Y-98504523D01*
X232727619Y-98599761D01*
X232584761Y-98647380D01*
X232489523Y-98647380D01*
X233870476Y-98647380D02*
X233299047Y-98647380D01*
X233584761Y-98647380D02*
X233584761Y-97647380D01*
X233489523Y-97790238D01*
X233394285Y-97885476D01*
X233299047Y-97933095D01*
X234203809Y-97647380D02*
X234822857Y-97647380D01*
X234489523Y-98028333D01*
X234632380Y-98028333D01*
X234727619Y-98075952D01*
X234775238Y-98123571D01*
X234822857Y-98218809D01*
X234822857Y-98456904D01*
X234775238Y-98552142D01*
X234727619Y-98599761D01*
X234632380Y-98647380D01*
X234346666Y-98647380D01*
X234251428Y-98599761D01*
X234203809Y-98552142D01*
X232870476Y-100187380D02*
X232870476Y-100901666D01*
X232822857Y-101044523D01*
X232727619Y-101139761D01*
X232584761Y-101187380D01*
X232489523Y-101187380D01*
X233870476Y-101187380D02*
X233299047Y-101187380D01*
X233584761Y-101187380D02*
X233584761Y-100187380D01*
X233489523Y-100330238D01*
X233394285Y-100425476D01*
X233299047Y-100473095D01*
X234203809Y-100187380D02*
X234822857Y-100187380D01*
X234489523Y-100568333D01*
X234632380Y-100568333D01*
X234727619Y-100615952D01*
X234775238Y-100663571D01*
X234822857Y-100758809D01*
X234822857Y-100996904D01*
X234775238Y-101092142D01*
X234727619Y-101139761D01*
X234632380Y-101187380D01*
X234346666Y-101187380D01*
X234251428Y-101139761D01*
X234203809Y-101092142D01*
X232870476Y-102727380D02*
X232870476Y-103441666D01*
X232822857Y-103584523D01*
X232727619Y-103679761D01*
X232584761Y-103727380D01*
X232489523Y-103727380D01*
X233870476Y-103727380D02*
X233299047Y-103727380D01*
X233584761Y-103727380D02*
X233584761Y-102727380D01*
X233489523Y-102870238D01*
X233394285Y-102965476D01*
X233299047Y-103013095D01*
X234203809Y-102727380D02*
X234822857Y-102727380D01*
X234489523Y-103108333D01*
X234632380Y-103108333D01*
X234727619Y-103155952D01*
X234775238Y-103203571D01*
X234822857Y-103298809D01*
X234822857Y-103536904D01*
X234775238Y-103632142D01*
X234727619Y-103679761D01*
X234632380Y-103727380D01*
X234346666Y-103727380D01*
X234251428Y-103679761D01*
X234203809Y-103632142D01*
X203660476Y-97647380D02*
X203660476Y-98361666D01*
X203612857Y-98504523D01*
X203517619Y-98599761D01*
X203374761Y-98647380D01*
X203279523Y-98647380D01*
X204660476Y-98647380D02*
X204089047Y-98647380D01*
X204374761Y-98647380D02*
X204374761Y-97647380D01*
X204279523Y-97790238D01*
X204184285Y-97885476D01*
X204089047Y-97933095D01*
X204993809Y-97647380D02*
X205612857Y-97647380D01*
X205279523Y-98028333D01*
X205422380Y-98028333D01*
X205517619Y-98075952D01*
X205565238Y-98123571D01*
X205612857Y-98218809D01*
X205612857Y-98456904D01*
X205565238Y-98552142D01*
X205517619Y-98599761D01*
X205422380Y-98647380D01*
X205136666Y-98647380D01*
X205041428Y-98599761D01*
X204993809Y-98552142D01*
X203660476Y-100187380D02*
X203660476Y-100901666D01*
X203612857Y-101044523D01*
X203517619Y-101139761D01*
X203374761Y-101187380D01*
X203279523Y-101187380D01*
X204660476Y-101187380D02*
X204089047Y-101187380D01*
X204374761Y-101187380D02*
X204374761Y-100187380D01*
X204279523Y-100330238D01*
X204184285Y-100425476D01*
X204089047Y-100473095D01*
X204993809Y-100187380D02*
X205612857Y-100187380D01*
X205279523Y-100568333D01*
X205422380Y-100568333D01*
X205517619Y-100615952D01*
X205565238Y-100663571D01*
X205612857Y-100758809D01*
X205612857Y-100996904D01*
X205565238Y-101092142D01*
X205517619Y-101139761D01*
X205422380Y-101187380D01*
X205136666Y-101187380D01*
X205041428Y-101139761D01*
X204993809Y-101092142D01*
X203660476Y-102727380D02*
X203660476Y-103441666D01*
X203612857Y-103584523D01*
X203517619Y-103679761D01*
X203374761Y-103727380D01*
X203279523Y-103727380D01*
X204660476Y-103727380D02*
X204089047Y-103727380D01*
X204374761Y-103727380D02*
X204374761Y-102727380D01*
X204279523Y-102870238D01*
X204184285Y-102965476D01*
X204089047Y-103013095D01*
X204993809Y-102727380D02*
X205612857Y-102727380D01*
X205279523Y-103108333D01*
X205422380Y-103108333D01*
X205517619Y-103155952D01*
X205565238Y-103203571D01*
X205612857Y-103298809D01*
X205612857Y-103536904D01*
X205565238Y-103632142D01*
X205517619Y-103679761D01*
X205422380Y-103727380D01*
X205136666Y-103727380D01*
X205041428Y-103679761D01*
X204993809Y-103632142D01*
%TO.C,Q4*%
X228504761Y-75937619D02*
X228409523Y-75890000D01*
X228314285Y-75794761D01*
X228171428Y-75651904D01*
X228076190Y-75604285D01*
X227980952Y-75604285D01*
X228028571Y-75842380D02*
X227933333Y-75794761D01*
X227838095Y-75699523D01*
X227790476Y-75509047D01*
X227790476Y-75175714D01*
X227838095Y-74985238D01*
X227933333Y-74890000D01*
X228028571Y-74842380D01*
X228219047Y-74842380D01*
X228314285Y-74890000D01*
X228409523Y-74985238D01*
X228457142Y-75175714D01*
X228457142Y-75509047D01*
X228409523Y-75699523D01*
X228314285Y-75794761D01*
X228219047Y-75842380D01*
X228028571Y-75842380D01*
X229314285Y-75175714D02*
X229314285Y-75842380D01*
X229076190Y-74794761D02*
X228838095Y-75509047D01*
X229457142Y-75509047D01*
%TO.C,J1*%
X192416666Y-139712380D02*
X192416666Y-140426666D01*
X192369047Y-140569523D01*
X192273809Y-140664761D01*
X192130952Y-140712380D01*
X192035714Y-140712380D01*
X193416666Y-140712380D02*
X192845238Y-140712380D01*
X193130952Y-140712380D02*
X193130952Y-139712380D01*
X193035714Y-139855238D01*
X192940476Y-139950476D01*
X192845238Y-139998095D01*
%TO.C,J2*%
X194052380Y-67933333D02*
X194766666Y-67933333D01*
X194909523Y-67980952D01*
X195004761Y-68076190D01*
X195052380Y-68219047D01*
X195052380Y-68314285D01*
X194147619Y-67504761D02*
X194100000Y-67457142D01*
X194052380Y-67361904D01*
X194052380Y-67123809D01*
X194100000Y-67028571D01*
X194147619Y-66980952D01*
X194242857Y-66933333D01*
X194338095Y-66933333D01*
X194480952Y-66980952D01*
X195052380Y-67552380D01*
X195052380Y-66933333D01*
%TO.C,J3*%
X191436666Y-105842380D02*
X191436666Y-106556666D01*
X191389047Y-106699523D01*
X191293809Y-106794761D01*
X191150952Y-106842380D01*
X191055714Y-106842380D01*
X191817619Y-105842380D02*
X192436666Y-105842380D01*
X192103333Y-106223333D01*
X192246190Y-106223333D01*
X192341428Y-106270952D01*
X192389047Y-106318571D01*
X192436666Y-106413809D01*
X192436666Y-106651904D01*
X192389047Y-106747142D01*
X192341428Y-106794761D01*
X192246190Y-106842380D01*
X191960476Y-106842380D01*
X191865238Y-106794761D01*
X191817619Y-106747142D01*
%TO.C,J4*%
X202866666Y-136322380D02*
X202866666Y-137036666D01*
X202819047Y-137179523D01*
X202723809Y-137274761D01*
X202580952Y-137322380D01*
X202485714Y-137322380D01*
X203771428Y-136655714D02*
X203771428Y-137322380D01*
X203533333Y-136274761D02*
X203295238Y-136989047D01*
X203914285Y-136989047D01*
%TO.C,J6*%
X213026666Y-145212380D02*
X213026666Y-145926666D01*
X212979047Y-146069523D01*
X212883809Y-146164761D01*
X212740952Y-146212380D01*
X212645714Y-146212380D01*
X213931428Y-145212380D02*
X213740952Y-145212380D01*
X213645714Y-145260000D01*
X213598095Y-145307619D01*
X213502857Y-145450476D01*
X213455238Y-145640952D01*
X213455238Y-146021904D01*
X213502857Y-146117142D01*
X213550476Y-146164761D01*
X213645714Y-146212380D01*
X213836190Y-146212380D01*
X213931428Y-146164761D01*
X213979047Y-146117142D01*
X214026666Y-146021904D01*
X214026666Y-145783809D01*
X213979047Y-145688571D01*
X213931428Y-145640952D01*
X213836190Y-145593333D01*
X213645714Y-145593333D01*
X213550476Y-145640952D01*
X213502857Y-145688571D01*
X213455238Y-145783809D01*
%TO.C,J7*%
X211756666Y-66472380D02*
X211756666Y-67186666D01*
X211709047Y-67329523D01*
X211613809Y-67424761D01*
X211470952Y-67472380D01*
X211375714Y-67472380D01*
X212137619Y-66472380D02*
X212804285Y-66472380D01*
X212375714Y-67472380D01*
%TO.C,J8*%
X221916666Y-74092380D02*
X221916666Y-74806666D01*
X221869047Y-74949523D01*
X221773809Y-75044761D01*
X221630952Y-75092380D01*
X221535714Y-75092380D01*
X222535714Y-74520952D02*
X222440476Y-74473333D01*
X222392857Y-74425714D01*
X222345238Y-74330476D01*
X222345238Y-74282857D01*
X222392857Y-74187619D01*
X222440476Y-74140000D01*
X222535714Y-74092380D01*
X222726190Y-74092380D01*
X222821428Y-74140000D01*
X222869047Y-74187619D01*
X222916666Y-74282857D01*
X222916666Y-74330476D01*
X222869047Y-74425714D01*
X222821428Y-74473333D01*
X222726190Y-74520952D01*
X222535714Y-74520952D01*
X222440476Y-74568571D01*
X222392857Y-74616190D01*
X222345238Y-74711428D01*
X222345238Y-74901904D01*
X222392857Y-74997142D01*
X222440476Y-75044761D01*
X222535714Y-75092380D01*
X222726190Y-75092380D01*
X222821428Y-75044761D01*
X222869047Y-74997142D01*
X222916666Y-74901904D01*
X222916666Y-74711428D01*
X222869047Y-74616190D01*
X222821428Y-74568571D01*
X222726190Y-74520952D01*
%TO.C,J9*%
X221916666Y-136322380D02*
X221916666Y-137036666D01*
X221869047Y-137179523D01*
X221773809Y-137274761D01*
X221630952Y-137322380D01*
X221535714Y-137322380D01*
X222440476Y-137322380D02*
X222630952Y-137322380D01*
X222726190Y-137274761D01*
X222773809Y-137227142D01*
X222869047Y-137084285D01*
X222916666Y-136893809D01*
X222916666Y-136512857D01*
X222869047Y-136417619D01*
X222821428Y-136370000D01*
X222726190Y-136322380D01*
X222535714Y-136322380D01*
X222440476Y-136370000D01*
X222392857Y-136417619D01*
X222345238Y-136512857D01*
X222345238Y-136750952D01*
X222392857Y-136846190D01*
X222440476Y-136893809D01*
X222535714Y-136941428D01*
X222726190Y-136941428D01*
X222821428Y-136893809D01*
X222869047Y-136846190D01*
X222916666Y-136750952D01*
%TO.C,J10*%
X234140476Y-129972380D02*
X234140476Y-130686666D01*
X234092857Y-130829523D01*
X233997619Y-130924761D01*
X233854761Y-130972380D01*
X233759523Y-130972380D01*
X235140476Y-130972380D02*
X234569047Y-130972380D01*
X234854761Y-130972380D02*
X234854761Y-129972380D01*
X234759523Y-130115238D01*
X234664285Y-130210476D01*
X234569047Y-130258095D01*
X235759523Y-129972380D02*
X235854761Y-129972380D01*
X235950000Y-130020000D01*
X235997619Y-130067619D01*
X236045238Y-130162857D01*
X236092857Y-130353333D01*
X236092857Y-130591428D01*
X236045238Y-130781904D01*
X235997619Y-130877142D01*
X235950000Y-130924761D01*
X235854761Y-130972380D01*
X235759523Y-130972380D01*
X235664285Y-130924761D01*
X235616666Y-130877142D01*
X235569047Y-130781904D01*
X235521428Y-130591428D01*
X235521428Y-130353333D01*
X235569047Y-130162857D01*
X235616666Y-130067619D01*
X235664285Y-130020000D01*
X235759523Y-129972380D01*
%TO.C,J11*%
X228342380Y-68409523D02*
X229056666Y-68409523D01*
X229199523Y-68457142D01*
X229294761Y-68552380D01*
X229342380Y-68695238D01*
X229342380Y-68790476D01*
X229342380Y-67409523D02*
X229342380Y-67980952D01*
X229342380Y-67695238D02*
X228342380Y-67695238D01*
X228485238Y-67790476D01*
X228580476Y-67885714D01*
X228628095Y-67980952D01*
X229342380Y-66457142D02*
X229342380Y-67028571D01*
X229342380Y-66742857D02*
X228342380Y-66742857D01*
X228485238Y-66838095D01*
X228580476Y-66933333D01*
X228628095Y-67028571D01*
%TO.C,J12*%
X233850476Y-140712380D02*
X233850476Y-141426666D01*
X233802857Y-141569523D01*
X233707619Y-141664761D01*
X233564761Y-141712380D01*
X233469523Y-141712380D01*
X234850476Y-141712380D02*
X234279047Y-141712380D01*
X234564761Y-141712380D02*
X234564761Y-140712380D01*
X234469523Y-140855238D01*
X234374285Y-140950476D01*
X234279047Y-140998095D01*
X235231428Y-140807619D02*
X235279047Y-140760000D01*
X235374285Y-140712380D01*
X235612380Y-140712380D01*
X235707619Y-140760000D01*
X235755238Y-140807619D01*
X235802857Y-140902857D01*
X235802857Y-140998095D01*
X235755238Y-141140952D01*
X235183809Y-141712380D01*
X235802857Y-141712380D01*
%TO.C,Q1*%
X200564761Y-147057619D02*
X200469523Y-147010000D01*
X200374285Y-146914761D01*
X200231428Y-146771904D01*
X200136190Y-146724285D01*
X200040952Y-146724285D01*
X200088571Y-146962380D02*
X199993333Y-146914761D01*
X199898095Y-146819523D01*
X199850476Y-146629047D01*
X199850476Y-146295714D01*
X199898095Y-146105238D01*
X199993333Y-146010000D01*
X200088571Y-145962380D01*
X200279047Y-145962380D01*
X200374285Y-146010000D01*
X200469523Y-146105238D01*
X200517142Y-146295714D01*
X200517142Y-146629047D01*
X200469523Y-146819523D01*
X200374285Y-146914761D01*
X200279047Y-146962380D01*
X200088571Y-146962380D01*
X201469523Y-146962380D02*
X200898095Y-146962380D01*
X201183809Y-146962380D02*
X201183809Y-145962380D01*
X201088571Y-146105238D01*
X200993333Y-146200476D01*
X200898095Y-146248095D01*
%TO.C,Q2*%
X196754761Y-68667619D02*
X196659523Y-68620000D01*
X196564285Y-68524761D01*
X196421428Y-68381904D01*
X196326190Y-68334285D01*
X196230952Y-68334285D01*
X196278571Y-68572380D02*
X196183333Y-68524761D01*
X196088095Y-68429523D01*
X196040476Y-68239047D01*
X196040476Y-67905714D01*
X196088095Y-67715238D01*
X196183333Y-67620000D01*
X196278571Y-67572380D01*
X196469047Y-67572380D01*
X196564285Y-67620000D01*
X196659523Y-67715238D01*
X196707142Y-67905714D01*
X196707142Y-68239047D01*
X196659523Y-68429523D01*
X196564285Y-68524761D01*
X196469047Y-68572380D01*
X196278571Y-68572380D01*
X197088095Y-67667619D02*
X197135714Y-67620000D01*
X197230952Y-67572380D01*
X197469047Y-67572380D01*
X197564285Y-67620000D01*
X197611904Y-67667619D01*
X197659523Y-67762857D01*
X197659523Y-67858095D01*
X197611904Y-68000952D01*
X197040476Y-68572380D01*
X197659523Y-68572380D01*
%TO.C,Q3*%
X227234761Y-147057619D02*
X227139523Y-147010000D01*
X227044285Y-146914761D01*
X226901428Y-146771904D01*
X226806190Y-146724285D01*
X226710952Y-146724285D01*
X226758571Y-146962380D02*
X226663333Y-146914761D01*
X226568095Y-146819523D01*
X226520476Y-146629047D01*
X226520476Y-146295714D01*
X226568095Y-146105238D01*
X226663333Y-146010000D01*
X226758571Y-145962380D01*
X226949047Y-145962380D01*
X227044285Y-146010000D01*
X227139523Y-146105238D01*
X227187142Y-146295714D01*
X227187142Y-146629047D01*
X227139523Y-146819523D01*
X227044285Y-146914761D01*
X226949047Y-146962380D01*
X226758571Y-146962380D01*
X227520476Y-145962380D02*
X228139523Y-145962380D01*
X227806190Y-146343333D01*
X227949047Y-146343333D01*
X228044285Y-146390952D01*
X228091904Y-146438571D01*
X228139523Y-146533809D01*
X228139523Y-146771904D01*
X228091904Y-146867142D01*
X228044285Y-146914761D01*
X227949047Y-146962380D01*
X227663333Y-146962380D01*
X227568095Y-146914761D01*
X227520476Y-146867142D01*
%TO.C,R1*%
X197953333Y-140802380D02*
X197620000Y-140326190D01*
X197381904Y-140802380D02*
X197381904Y-139802380D01*
X197762857Y-139802380D01*
X197858095Y-139850000D01*
X197905714Y-139897619D01*
X197953333Y-139992857D01*
X197953333Y-140135714D01*
X197905714Y-140230952D01*
X197858095Y-140278571D01*
X197762857Y-140326190D01*
X197381904Y-140326190D01*
X198905714Y-140802380D02*
X198334285Y-140802380D01*
X198620000Y-140802380D02*
X198620000Y-139802380D01*
X198524761Y-139945238D01*
X198429523Y-140040476D01*
X198334285Y-140088095D01*
%TO.C,R3*%
X227163333Y-140802380D02*
X226830000Y-140326190D01*
X226591904Y-140802380D02*
X226591904Y-139802380D01*
X226972857Y-139802380D01*
X227068095Y-139850000D01*
X227115714Y-139897619D01*
X227163333Y-139992857D01*
X227163333Y-140135714D01*
X227115714Y-140230952D01*
X227068095Y-140278571D01*
X226972857Y-140326190D01*
X226591904Y-140326190D01*
X227496666Y-139802380D02*
X228115714Y-139802380D01*
X227782380Y-140183333D01*
X227925238Y-140183333D01*
X228020476Y-140230952D01*
X228068095Y-140278571D01*
X228115714Y-140373809D01*
X228115714Y-140611904D01*
X228068095Y-140707142D01*
X228020476Y-140754761D01*
X227925238Y-140802380D01*
X227639523Y-140802380D01*
X227544285Y-140754761D01*
X227496666Y-140707142D01*
%TO.C,R4*%
X228433333Y-78572380D02*
X228100000Y-78096190D01*
X227861904Y-78572380D02*
X227861904Y-77572380D01*
X228242857Y-77572380D01*
X228338095Y-77620000D01*
X228385714Y-77667619D01*
X228433333Y-77762857D01*
X228433333Y-77905714D01*
X228385714Y-78000952D01*
X228338095Y-78048571D01*
X228242857Y-78096190D01*
X227861904Y-78096190D01*
X229290476Y-77905714D02*
X229290476Y-78572380D01*
X229052380Y-77524761D02*
X228814285Y-78239047D01*
X229433333Y-78239047D01*
%TD*%
M02*
