M48
; DRILL file {KiCad (5.1.10)-1} date 10/03/21 01:52:12
; FORMAT={-:-/ absolute / inch / decimal}
; #@! TF.CreationDate,2021-10-03T01:52:12+02:00
; #@! TF.GenerationSoftware,Kicad,Pcbnew,(5.1.10)-1
; #@! TF.FileFunction,Plated,1,2,PTH
FMAT,2
INCH
T1C0.0197
T2C0.0276
T3C0.0433
%
G90
G05
T1
X7.55Y-4.25
X7.6Y-5.6106
X7.6Y-5.65
X7.75Y-2.65
X7.7894Y-2.65
X8.0Y-5.45
X8.03Y-3.01
X8.35Y-2.7
X8.4Y-5.8
X8.75Y-3.0
X8.75Y-5.45
X9.03Y-3.23
X9.1Y-2.65
X9.1394Y-2.65
X9.25Y-5.2
X9.25Y-5.65
X9.25Y-5.6894
T2
X7.65Y-3.01
X7.7Y-5.45
X7.85Y-3.01
X7.9Y-3.55
X7.9Y-3.65
X7.9Y-3.75
X7.9Y-3.85
X7.9Y-3.95
X7.9Y-4.05
X7.9Y-4.15
X7.9Y-4.25
X7.9Y-4.35
X7.9Y-4.45
X7.9Y-4.55
X7.9Y-4.65
X7.9Y-4.75
X7.9Y-4.85
X7.9Y-4.95
X7.9Y-5.45
X8.05Y-3.55
X8.05Y-3.65
X8.05Y-3.75
X8.05Y-3.85
X8.05Y-3.95
X8.05Y-4.05
X8.05Y-4.15
X8.05Y-4.25
X8.05Y-4.35
X8.05Y-4.45
X8.05Y-4.55
X8.05Y-4.65
X8.05Y-4.75
X8.05Y-4.85
X8.05Y-4.95
X8.85Y-5.45
X8.9Y-3.0
X9.05Y-3.55
X9.05Y-3.65
X9.05Y-3.75
X9.05Y-3.85
X9.05Y-3.95
X9.05Y-4.05
X9.05Y-4.15
X9.05Y-4.25
X9.05Y-4.35
X9.05Y-4.45
X9.05Y-4.55
X9.05Y-4.65
X9.05Y-4.75
X9.05Y-4.85
X9.05Y-4.95
X9.05Y-5.45
X9.1Y-3.0
X9.2Y-3.55
X9.2Y-3.65
X9.2Y-3.75
X9.2Y-3.85
X9.2Y-3.95
X9.2Y-4.05
X9.2Y-4.15
X9.2Y-4.25
X9.2Y-4.35
X9.2Y-4.45
X9.2Y-4.55
X9.2Y-4.65
X9.2Y-4.75
X9.2Y-4.85
X9.2Y-4.95
T3
X7.65Y-2.85
X7.75Y-2.85
X7.8Y-5.6
X7.85Y-2.85
X7.9Y-5.6
X8.0Y-5.6
X8.85Y-5.6
X8.9Y-2.8
X8.95Y-5.6
X9.0Y-2.8
X9.05Y-5.6
X9.1Y-2.8
T0
M30
