%TF.GenerationSoftware,KiCad,Pcbnew,(5.1.10)-1*%
%TF.CreationDate,2021-10-03T01:52:35+02:00*%
%TF.ProjectId,no 1,6e6f2031-2e6b-4696-9361-645f70636258,rev?*%
%TF.SameCoordinates,Original*%
%TF.FileFunction,Soldermask,Bot*%
%TF.FilePolarity,Negative*%
%FSLAX46Y46*%
G04 Gerber Fmt 4.6, Leading zero omitted, Abs format (unit mm)*
G04 Created by KiCad (PCBNEW (5.1.10)-1) date 2021-10-03 01:52:35*
%MOMM*%
%LPD*%
G01*
G04 APERTURE LIST*
%ADD10O,1.400000X1.400000*%
%ADD11C,1.400000*%
%ADD12R,0.850000X0.850000*%
%ADD13C,2.500000*%
%ADD14R,1.000000X1.000000*%
%ADD15R,1.905000X2.000000*%
%ADD16O,1.905000X2.000000*%
%ADD17O,0.850000X0.850000*%
G04 APERTURE END LIST*
D10*
%TO.C,R2*%
X194310000Y-76454000D03*
D11*
X199390000Y-76454000D03*
%TD*%
D12*
%TO.C,J5*%
X203962000Y-76454000D03*
%TD*%
%TO.C,J13*%
X229362000Y-82042000D03*
%TD*%
D13*
%TO.C,H2*%
X217170000Y-106480000D03*
%TD*%
%TO.C,H1*%
X217170000Y-113030000D03*
%TD*%
D14*
%TO.C,J13*%
X200660000Y-95250000D03*
%TD*%
%TO.C,J13*%
X204470000Y-95250000D03*
%TD*%
%TO.C,J13*%
X200660000Y-97790000D03*
%TD*%
%TO.C,J13*%
X204470000Y-97790000D03*
%TD*%
%TO.C,J14*%
X233680000Y-107950000D03*
%TD*%
%TO.C,J14*%
X233680000Y-110490000D03*
%TD*%
%TO.C,J14*%
X233680000Y-113030000D03*
%TD*%
%TO.C,J14*%
X233680000Y-115570000D03*
%TD*%
%TO.C,J14*%
X233680000Y-95250000D03*
%TD*%
%TO.C,J14*%
X233680000Y-92710000D03*
%TD*%
%TO.C,J14*%
X233680000Y-90170000D03*
%TD*%
%TO.C,J14*%
X233680000Y-118110000D03*
%TD*%
%TO.C,J14*%
X233680000Y-120650000D03*
%TD*%
%TO.C,J14*%
X233680000Y-123190000D03*
%TD*%
%TO.C,J14*%
X233680000Y-125730000D03*
%TD*%
%TO.C,J14*%
X229870000Y-115570000D03*
%TD*%
%TO.C,J14*%
X229870000Y-118110000D03*
%TD*%
%TO.C,J14*%
X229870000Y-120650000D03*
%TD*%
%TO.C,J14*%
X229870000Y-123190000D03*
%TD*%
%TO.C,J14*%
X229870000Y-125730000D03*
%TD*%
%TO.C,J14*%
X200660000Y-115570000D03*
%TD*%
%TO.C,J14*%
X200660000Y-120650000D03*
%TD*%
%TO.C,J14*%
X200660000Y-125730000D03*
%TD*%
%TO.C,J14*%
X200660000Y-118110000D03*
%TD*%
%TO.C,J14*%
X200660000Y-123190000D03*
%TD*%
%TO.C,J14*%
X204470000Y-107950000D03*
%TD*%
%TO.C,J14*%
X204470000Y-110490000D03*
%TD*%
%TO.C,J14*%
X204470000Y-113030000D03*
%TD*%
%TO.C,J14*%
X204470000Y-115570000D03*
%TD*%
%TO.C,J14*%
X204470000Y-92710000D03*
%TD*%
%TO.C,J14*%
X204470000Y-118110000D03*
%TD*%
%TO.C,J14*%
X204470000Y-123190000D03*
%TD*%
%TO.C,J14*%
X204470000Y-125730000D03*
%TD*%
%TO.C,J14*%
X204470000Y-120650000D03*
%TD*%
%TO.C,J14*%
X204470000Y-90170000D03*
%TD*%
%TO.C,J13*%
X229870000Y-100330000D03*
%TD*%
%TO.C,J13*%
X229870000Y-102870000D03*
%TD*%
%TO.C,J13*%
X229870000Y-105410000D03*
%TD*%
%TO.C,J13*%
X229870000Y-95250000D03*
%TD*%
%TO.C,J13*%
X229870000Y-92710000D03*
%TD*%
%TO.C,J13*%
X229870000Y-90170000D03*
%TD*%
%TO.C,J13*%
X229870000Y-107950000D03*
%TD*%
%TO.C,J13*%
X229870000Y-110490000D03*
%TD*%
%TO.C,J13*%
X229870000Y-113030000D03*
%TD*%
%TO.C,J13*%
X200660000Y-100330000D03*
%TD*%
%TO.C,J13*%
X200660000Y-105410000D03*
%TD*%
%TO.C,J13*%
X200660000Y-102870000D03*
%TD*%
%TO.C,J13*%
X200660000Y-90170000D03*
%TD*%
%TO.C,J13*%
X200660000Y-92710000D03*
%TD*%
%TO.C,J13*%
X200660000Y-110490000D03*
%TD*%
%TO.C,J13*%
X200660000Y-113030000D03*
%TD*%
%TO.C,J13*%
X200660000Y-107950000D03*
%TD*%
%TO.C,J13*%
X229870000Y-97790000D03*
%TD*%
%TO.C,J13*%
X233680000Y-97790000D03*
%TD*%
%TO.C,J13*%
X233680000Y-100330000D03*
%TD*%
%TO.C,J13*%
X233680000Y-102870000D03*
%TD*%
%TO.C,J13*%
X233680000Y-105410000D03*
%TD*%
%TO.C,J13*%
X204470000Y-100330000D03*
%TD*%
%TO.C,J13*%
X204470000Y-102870000D03*
%TD*%
%TO.C,J13*%
X204470000Y-105410000D03*
%TD*%
D15*
%TO.C,Q4*%
X231140000Y-71120000D03*
D16*
X228600000Y-71120000D03*
X226060000Y-71120000D03*
%TD*%
D17*
%TO.C,J1*%
X193040000Y-143510000D03*
D12*
X193040000Y-142510000D03*
%TD*%
%TO.C,J2*%
X196850000Y-67310000D03*
D17*
X197850000Y-67310000D03*
%TD*%
D12*
%TO.C,J3*%
X191770000Y-107950000D03*
%TD*%
%TO.C,J4*%
X203200000Y-138430000D03*
%TD*%
%TO.C,J6*%
X213360000Y-147320000D03*
%TD*%
%TO.C,J7*%
X212090000Y-68580000D03*
%TD*%
%TO.C,J8*%
X222250000Y-76200000D03*
%TD*%
%TO.C,J9*%
X222250000Y-138430000D03*
%TD*%
%TO.C,J10*%
X234950000Y-132080000D03*
%TD*%
D17*
%TO.C,J11*%
X232140000Y-67310000D03*
D12*
X231140000Y-67310000D03*
%TD*%
%TO.C,J12*%
X234950000Y-143510000D03*
D17*
X234950000Y-144510000D03*
%TD*%
D15*
%TO.C,Q1*%
X203200000Y-142240000D03*
D16*
X200660000Y-142240000D03*
X198120000Y-142240000D03*
%TD*%
%TO.C,Q2*%
X199390000Y-72390000D03*
X196850000Y-72390000D03*
D15*
X194310000Y-72390000D03*
%TD*%
%TO.C,Q3*%
X229870000Y-142240000D03*
D16*
X227330000Y-142240000D03*
X224790000Y-142240000D03*
%TD*%
D10*
%TO.C,R1*%
X195580000Y-138430000D03*
D11*
X200660000Y-138430000D03*
%TD*%
%TO.C,R3*%
X229870000Y-138430000D03*
D10*
X224790000Y-138430000D03*
%TD*%
%TO.C,R4*%
X226060000Y-76200000D03*
D11*
X231140000Y-76200000D03*
%TD*%
M02*
